<svg xmlns="http://www.w3.org/2000/svg" width="220" height="220" viewBox="0 0 220 220" fill="none">
  <path d="M195.739 32.0608H25.6904C21.8334 32.0608 18.7031 35.1911 18.7031 39.048V87.6512C18.7031 91.5082 21.8334 94.6384 25.6904 94.6384H195.739C199.603 94.6384 202.726 91.5082 202.726 87.6512V39.048C202.726 35.1911 199.603 32.0608 195.739 32.0608ZM104.765 84.0458C104.765 85.9743 103.2 87.5394 101.271 87.5394H40.0631C38.1276 87.5394 36.5695 85.9743 36.5695 84.0458V54.2243C36.5695 52.2958 38.1276 50.7307 40.0631 50.7307H101.271C103.2 50.7307 104.765 52.2958 104.765 54.2243V84.0458ZM184.867 84.0458C184.867 85.9743 183.301 87.5394 181.373 87.5394H121.248C119.319 87.5394 117.754 85.9743 117.754 84.0458V54.2243C117.754 52.2958 119.319 50.7307 121.248 50.7307H181.373C183.301 50.7307 184.867 52.2958 184.867 54.2243V84.0458Z" fill="#3954E9"/>
  <path d="M152.622 73.195C153.219 73.195 153.704 72.7104 153.704 72.1125C153.704 71.5147 153.219 71.03 152.622 71.03C152.024 71.03 151.539 71.5147 151.539 72.1125C151.539 72.7104 152.024 73.195 152.622 73.195Z" fill="white"/>
  <path d="M220 106.887V171.568C220 175.425 216.87 178.555 213.013 178.555H198.703V185.843C198.703 187.003 197.767 187.939 196.607 187.939H184.666C183.506 187.939 182.569 187.003 182.569 185.843V178.555H37.228V185.843C37.228 187.003 36.2917 187.939 35.1318 187.939H23.1976C22.0377 187.939 21.1014 187.003 21.1014 185.843V178.555H6.98723C3.13026 178.555 0 175.425 0 171.568V106.887C0 103.03 3.13026 99.8999 6.98723 99.8999H213.013C216.87 99.8999 220 103.03 220 106.887Z" fill="#3954E9"/>
</svg>