<svg width="50" height="50" viewBox="0 0 50 50" fill="none" xmlns="http://www.w3.org/2000/svg">
<g id="Icon_Fahrrad">
<path id="Vector" d="M39.0772 21.74C38.1672 21.74 37.2772 21.88 36.4572 22.15L33.8972 16.5L34.9972 13.78H36.1772V11.78H29.4972C30.0972 13.01 31.3372 13.78 32.7072 13.78H32.8472L32.0072 15.86H16.1372L17.0772 12.75H21.3772V10.75H15.5972L12.2072 21.88C11.7172 21.79 11.2072 21.74 10.6872 21.74C5.94721 21.74 2.09717 25.6 2.09717 30.34C2.09717 35.08 5.94721 38.93 10.6872 38.93C15.4272 38.93 19.2772 35.08 19.2772 30.34C19.2772 26.82 17.1572 23.79 14.1272 22.46L14.9272 19.82L25.9272 31.34H30.5372C31.0272 35.61 34.6772 38.93 39.0772 38.93C43.8172 38.93 47.6672 35.08 47.6672 30.34C47.6672 25.5999 43.8172 21.74 39.0772 21.74ZM17.2772 30.34C17.2772 33.97 14.3272 36.93 10.6872 36.93C7.04719 36.93 4.09718 33.97 4.09718 30.34C4.09718 26.7 7.04719 23.74 10.6872 23.74C11.0072 23.74 11.3272 23.76 11.6272 23.81L9.72719 30.05L11.6472 30.63L13.5372 24.4C15.7472 25.46 17.2772 27.72 17.2772 30.34ZM15.8172 17.86H31.1972L26.6272 29.18L15.8172 17.86ZM28.7072 29.34L32.8672 19.06L34.6372 22.98C32.4172 24.32 30.8472 26.64 30.5372 29.34H28.7072ZM35.4772 24.82L37.5272 29.34H32.5572C32.8472 27.44 33.9372 25.82 35.4772 24.82ZM39.0772 36.93C35.7772 36.93 33.0372 34.5 32.5572 31.34H40.6272L37.2972 23.99C37.8572 23.83 38.4572 23.74 39.0772 23.74C42.7072 23.74 45.6672 26.7 45.6672 30.34C45.6672 33.97 42.7072 36.93 39.0772 36.93Z" fill="#3054F3"/>
</g>
</svg>
