<svg width="50" height="51" viewBox="0 0 50 51" fill="none" xmlns="http://www.w3.org/2000/svg">
<g id="Icon_&#195;&#150;PNV">
<path id="Vector" d="M33.2572 38.7764H37.0072L40.5272 32.9064V11.2864C40.5272 8.24646 38.0772 5.78645 35.0372 5.78645H34.4672V4.97645C34.4672 3.53645 33.2972 2.35645 31.8472 2.35645H18.1472C16.7072 2.35645 15.5272 3.53644 15.5272 4.97645V5.78645H14.9572C11.9272 5.78645 9.46716 8.24646 9.46716 11.2864V32.9064L13.0972 38.7764H16.7372L9.47716 48.3065H14.1072L19.2771 41.2664H30.7272L35.8971 48.3065L40.5672 48.2965L33.2572 38.7764ZM20.0472 7.95643H29.9472C30.8072 7.95643 31.4972 8.65644 31.4972 9.50648C31.4972 10.3665 30.8072 11.0565 29.9472 11.0565H20.0472C19.1972 11.0565 18.4972 10.3665 18.4972 9.50648C18.4972 8.65644 19.1972 7.95643 20.0472 7.95643ZM16.2972 33.0065C15.2072 33.0065 14.3272 32.1165 14.3272 31.0264C14.3272 29.9365 15.2072 29.0465 16.2972 29.0465C17.3972 29.0465 18.2772 29.9365 18.2772 31.0264C18.2772 32.1165 17.3972 33.0065 16.2972 33.0065ZM12.8172 25.5164C12.4372 25.5164 12.1372 25.2164 12.1372 24.8364V14.5764C12.1372 14.2064 12.4372 13.8964 12.8172 13.8964H37.1872C37.5672 13.8964 37.8672 14.2064 37.8672 14.5764V24.8364C37.8672 25.2164 37.5672 25.5164 37.1872 25.5164H12.8172ZM31.7172 31.0264C31.7172 29.9365 32.6072 29.0465 33.6972 29.0465C34.7872 29.0465 35.6772 29.9365 35.6772 31.0264C35.6772 32.1165 34.7872 33.0065 33.6972 33.0065C32.6072 33.0065 31.7172 32.1165 31.7172 31.0264Z" fill="#3054F3"/>
</g>
</svg>
