<svg width="50" height="51" viewBox="0 0 50 51" fill="none" xmlns="http://www.w3.org/2000/svg">
<g id="Icon_Fu&#195;&#159;g&#195;&#164;nger">
<path id="Vector" d="M25.6783 11.4012C28.0139 11.4012 29.9072 9.50788 29.9072 7.1723C29.9072 4.83672 28.0139 2.94336 25.6783 2.94336C23.3427 2.94336 21.4493 4.83672 21.4493 7.1723C21.4493 9.50788 23.3427 11.4012 25.6783 11.4012Z" fill="#3054F3"/>
<g id="Group">
<path id="Vector_2" d="M21.9671 33.77C22.6071 33.9 23.1571 34.02 23.5672 34.28L19.7071 46.24C19.3671 47.3 18.3872 47.97 17.3272 47.97C17.0672 47.97 16.8172 47.93 16.5571 47.85C15.2471 47.42 14.5271 46.01 14.9472 44.7L18.8872 32.5C19.8771 33.35 21.0072 33.58 21.9671 33.77Z" fill="#3054F3"/>
<path id="Vector_3" d="M31.4471 48.2001C31.2971 48.2201 31.1571 48.2301 31.0071 48.2301C29.8171 48.2301 28.7671 47.3801 28.5471 46.1701L26.8371 36.4701C26.7271 35.8601 26.3971 35.3001 25.9071 34.9101L24.0971 33.4601C24.0971 33.4601 23.8871 33.3101 23.8771 33.3101C23.3671 33.0401 22.7871 32.9201 22.1671 32.7901C21.0671 32.5701 19.9471 32.3401 19.0371 31.2301C19.0171 31.1901 18.9871 31.1601 18.9671 31.1201C18.4171 30.2701 18.0471 28.9901 18.5271 27.1501L20.3971 18.7701L18.5471 19.7701L17.3271 26.9501C17.1671 27.9301 16.3171 28.6201 15.3671 28.6201C15.2471 28.6201 15.1371 28.6101 15.0271 28.5901C13.9371 28.4101 13.2071 27.3801 13.3871 26.2901L14.5971 19.1101C14.8171 17.7801 15.6771 16.6701 16.9071 16.1201L22.6771 12.9801C22.7071 12.9601 22.7271 12.9501 22.7471 12.9401L23.1471 12.7201C23.1671 12.7001 23.1871 12.7001 23.1971 12.7001C23.2871 12.6501 23.3671 12.6201 23.4571 12.5901C23.5271 12.5601 23.6071 12.5401 23.6771 12.5201C24.2171 12.3601 24.7971 12.3401 25.3771 12.4701C27.2671 12.8901 28.4571 14.7601 28.0371 16.6401L27.6871 18.2201L26.7271 22.5501L26.4071 23.9801L25.4771 28.1501L29.0471 31.0201C30.4771 32.1701 31.4371 33.7901 31.7571 35.6001L33.4771 45.3001C33.7171 46.6601 32.8071 47.9601 31.4471 48.2001Z" fill="#3054F3"/>
<path id="Vector_4" d="M34.907 26.3801C34.5171 26.8901 33.9271 27.1602 33.3271 27.1602C32.897 27.1602 32.467 27.0201 32.097 26.7401L27.6071 23.2302L28.5571 18.9102L34.5571 23.5801C35.4271 24.2601 35.587 25.5101 34.907 26.3801Z" fill="#3054F3"/>
</g>
</g>
</svg>
