<svg width="50" height="50" viewBox="0 0 50 50" fill="none" xmlns="http://www.w3.org/2000/svg">
<g id="Verkehr">
<path id="Vector" d="M10.5771 38.1948V42.1448C10.5771 42.4348 10.3571 42.6548 10.0671 42.6548H3.92712C3.64709 42.6548 3.41711 42.4348 3.41711 42.1448V36.2148C4.22711 36.6848 6.06713 37.3448 10.5771 38.1948Z" fill="#3054F3"/>
<path id="Vector_2" d="M46.5472 36.5947V42.1448C46.5472 42.4348 46.3072 42.6547 46.0372 42.6547H39.8872C39.6072 42.6547 39.3772 42.4348 39.3772 42.1448V38.8647C42.8872 38.2548 45.2572 37.5048 46.5472 36.5947Z" fill="#3054F3"/>
<path id="Vector_3" d="M44.5571 20.5548L45.4271 20.5748H45.8271C46.6771 20.5748 47.3671 19.8848 47.3671 19.0347C47.3671 18.1848 46.6771 17.4948 45.8271 17.4948H43.3871C43.1671 17.4948 42.9671 17.3748 42.8671 17.1948L38.0271 8.67475C37.5571 7.85474 36.6771 7.34473 35.7271 7.34473H14.5171C13.5671 7.34473 12.6971 7.85474 12.2271 8.67475L7.38712 17.1948C7.27707 17.3748 7.07712 17.4948 6.8671 17.4948H4.35709C3.4971 17.4948 2.8071 18.1848 2.8071 19.0347C2.8071 19.8848 3.4971 20.5748 4.35709 20.5748H4.82712L5.65708 20.5347C3.88712 22.9247 0.497109 31.3748 3.18711 34.9247C4.03709 36.0547 9.82712 37.1848 15.1871 38.0148C22.5471 39.1547 30.0471 39.2748 37.4171 38.2247C41.9671 37.5648 46.1871 36.5347 47.0671 34.9247C49.1871 31.0148 46.3271 22.9448 44.5571 20.5548ZM8.60709 31.1348C6.89707 31.1348 5.50711 29.7448 5.50711 28.0347C5.50711 26.3348 6.89706 24.9448 8.60709 24.9448C10.3171 24.9448 11.7071 26.3348 11.7071 28.0347C11.7071 29.7447 10.3171 31.1348 8.60709 31.1348ZM34.2171 28.3948L32.6571 32.7148C32.5671 32.8948 32.3871 33.0048 32.1871 33.0048H18.1371C17.9371 33.0048 17.7571 32.8948 17.6771 32.7148L16.1171 28.3948C15.9571 28.0648 16.2071 27.6747 16.5771 27.6747H33.7471C34.1271 27.6747 34.3771 28.0648 34.2171 28.3948ZM11.0471 18.7847C9.9971 18.6747 9.31711 17.6547 9.81711 16.7148L13.3871 10.0748C13.6271 9.61476 14.1071 9.33479 14.6171 9.33479H35.3571C35.8571 9.33479 36.3271 9.60475 36.5771 10.0447L40.3471 16.6848C40.8771 17.6248 40.1971 18.6747 39.1271 18.7847C26.1171 20.1747 24.1371 20.1848 11.0471 18.7847ZM41.0771 31.1348C39.3671 31.1348 37.9871 29.7448 37.9871 28.0347C37.9871 26.3348 39.3671 24.9448 41.0771 24.9448C42.7871 24.9448 44.1771 26.3348 44.1771 28.0347C44.1771 29.7447 42.7871 31.1348 41.0771 31.1348Z" fill="#3054F3"/>
</g>
</svg>
