<svg width="391" height="361" viewBox="0 0 391 361" fill="none" xmlns="http://www.w3.org/2000/svg">
<path d="M34.7438 9H3C3 128.294 89.1852 225 195.5 225C301.815 225 388 128.294 388 9H345.95" stroke="#E5ECFF" stroke-width="5" stroke-linejoin="round"/>
<path fill-rule="evenodd" clip-rule="evenodd" d="M326.239 361H63.7607C60.1937 361 57.262 357.841 57.1159 353.84L43.0057 16.7715C42.8509 12.5319 45.8707 9 49.6505 9H340.35C344.129 9 347.149 12.5319 346.994 16.7715L332.884 353.84C332.738 357.841 329.806 361 326.239 361Z" fill="#E5ECFF"/>
<path d="M356.969 0H33.0307C28.0432 0 24 2.21413 24 4.9454V14.0546C24 16.7859 28.0432 19 33.0307 19H356.969C361.957 19 366 16.7859 366 14.0546V4.9454C366 2.21413 361.957 0 356.969 0Z" fill="#E5ECFF"/>
</svg>
