<svg xmlns="http://www.w3.org/2000/svg" width="220" height="220" viewBox="0 0 220 220" fill="none">
  <path d="M44.3078 50.1047C55.8105 50.1047 65.1352 40.7799 65.1352 29.2773C65.1352 17.7747 55.8105 8.44995 44.3078 8.44995C32.8052 8.44995 23.4805 17.7747 23.4805 29.2773C23.4805 40.7799 32.8052 50.1047 44.3078 50.1047Z" fill="#3054F3"/>
  <path d="M5.92924 99.546V71.4799C5.92924 62.3958 13.2933 55.0317 22.3774 55.0317H66.3042C75.3883 55.0317 82.7523 62.3958 82.7523 71.4799V119.736C82.7523 120.588 82.3613 121.393 81.6916 121.919L69.9989 131.111C69.3955 131.586 69.0153 132.289 68.9487 133.053L62.6948 204.843C62.3643 208.638 59.1876 211.55 55.3789 211.55H33.3027C29.4939 211.55 26.3173 208.638 25.9867 204.843L19.7333 133.057C19.6665 132.29 19.2841 131.585 18.6776 131.111L6.92944 121.923C6.254 121.394 5.86049 120.584 5.8633 119.726L5.92924 99.546Z" fill="#3054F3"/>
  <path d="M181.22 73.3157C191.069 73.3157 199.053 65.3316 199.053 55.4827C199.053 45.6338 191.069 37.6497 181.22 37.6497C171.371 37.6497 163.387 45.6338 163.387 55.4827C163.387 65.3316 171.371 73.3157 181.22 73.3157Z" fill="#3054F3"/>
  <path d="M148.359 115.649V91.6178C148.359 83.8398 154.665 77.5344 162.443 77.5344H200.054C207.832 77.5344 214.137 83.8398 214.137 91.6178V132.936C214.137 133.666 213.803 134.355 213.229 134.805L203.218 142.676C202.701 143.082 202.375 143.684 202.318 144.339L196.964 205.808C196.681 209.057 193.961 211.55 190.699 211.55H171.797C168.536 211.55 165.816 209.057 165.533 205.808L160.179 144.342C160.121 143.686 159.794 143.082 159.275 142.676L149.216 134.808C148.637 134.356 148.3 133.662 148.303 132.928L148.359 115.649Z" fill="#3054F3"/>
  <path d="M115.527 100.849C123.414 100.849 129.808 94.4551 129.808 86.5679C129.808 78.6807 123.414 72.2869 115.527 72.2869C107.64 72.2869 101.246 78.6807 101.246 86.5679C101.246 94.4551 107.64 100.849 115.527 100.849Z" fill="#3054F3"/>
  <path d="M89.2112 134.75V115.506C89.2112 109.277 94.2607 104.228 100.49 104.228H130.61C136.838 104.228 141.888 109.277 141.888 115.506V148.594C141.888 149.179 141.62 149.73 141.161 150.091L133.143 156.394C132.729 156.72 132.469 157.202 132.423 157.726L128.135 206.952C127.908 209.553 125.73 211.55 123.118 211.55H107.981C105.369 211.55 103.191 209.553 102.964 206.952L98.6765 157.729C98.6307 157.203 98.3685 156.719 97.9526 156.394L89.8971 150.094C89.4339 149.732 89.1641 149.176 89.166 148.588L89.2112 134.75Z" fill="#3054F3"/>
</svg>