<svg width="28" height="40" viewBox="0 0 28 40" fill="none" xmlns="http://www.w3.org/2000/svg">
<path d="M27.2415 26.4722C27.2415 32.7653 22.907 38.0448 17.0609 39.4958C16.9671 39.5191 16.913 39.3939 16.9929 39.3397C19.7149 37.4937 19.4757 31.7102 14.4287 29.693C8.78792 27.4402 7.91668 23.9906 10.2135 17.109C10.2135 17.109 1.91512 25.9618 6.66709 34.577C7.60105 36.2629 9.2327 38.5539 11.658 39.5419C11.7562 39.5819 11.7151 39.7223 11.6105 39.705C5.24962 38.6535 0.401489 33.1257 0.401489 26.4722C0.401489 23.0138 1.70387 19.8722 3.85107 17.4874C5.92792 15.1906 15.6607 9.0306 9.91428 0.0810214C9.58868 -0.420587 17.8783 2.74745 18.3711 15.1554C18.4767 17.7514 18.7931 21.3986 20.3863 21.8434C21.6865 22.2064 23.6247 16.669 21.2487 13.1842C21.0111 12.841 24.3639 15.7714 26.2119 21.3946C26.5727 22.4858 27.2415 24.4482 27.2415 26.4722Z" fill="#3054F3"/>
</svg>
