<svg width="44" height="44" viewBox="0 0 44 44" fill="none" xmlns="http://www.w3.org/2000/svg">
<path d="M35.2415 28.4722C35.2415 34.7653 30.907 40.0448 25.0609 41.4958C24.9671 41.5191 24.913 41.3939 24.9929 41.3397C27.7149 39.4937 27.4757 33.7102 22.4287 31.693C16.7879 29.4402 15.9167 25.9906 18.2135 19.109C18.2135 19.109 9.91512 27.9618 14.6671 36.577C15.601 38.2629 17.2327 40.5539 19.658 41.5419C19.7562 41.5819 19.7151 41.7223 19.6105 41.705C13.2496 40.6535 8.40149 35.1257 8.40149 28.4722C8.40149 25.0138 9.70387 21.8722 11.8511 19.4874C13.9279 17.1906 23.6607 11.0306 17.9143 2.08102C17.5887 1.57941 25.8783 4.74745 26.3711 17.1554C26.4767 19.7514 26.7931 23.3986 28.3863 23.8434C29.6865 24.2064 31.6247 18.669 29.2487 15.1842C29.0111 14.841 32.3639 17.7714 34.2119 23.3946C34.5727 24.4858 35.2415 26.4482 35.2415 28.4722Z" fill="#3054F3"/>
</svg>
