<svg width="50" height="51" viewBox="0 0 50 51" fill="none" xmlns="http://www.w3.org/2000/svg">
<g id="bezirkliche Geb&#195;&#164;ude">
<path id="Vector" d="M45.8931 40.5771H3.85986C3.58372 40.5771 3.35986 40.801 3.35986 41.0771V43.4397C3.35986 43.7159 3.58372 43.9397 3.85986 43.9397H45.8931C46.1693 43.9397 46.3931 43.7159 46.3931 43.4397V41.0771C46.3931 40.801 46.1693 40.5771 45.8931 40.5771Z" fill="#99EE63"/>
<path id="Vector_2" d="M47.2539 44.9648H2.49902C2.22288 44.9648 1.99902 45.1887 1.99902 45.4648V47.8274C1.99902 48.1036 2.22288 48.3274 2.49902 48.3274H47.2539C47.5301 48.3274 47.7539 48.1036 47.7539 47.8274V45.4648C47.7539 45.1887 47.5301 44.9648 47.2539 44.9648Z" fill="#99EE63"/>
<path id="Vector_3" d="M24.6922 2.9761L2.20733 20.5419C1.83259 20.8347 2.03961 21.4359 2.51515 21.4359H47.4849C47.9604 21.4359 48.1674 20.8347 47.7927 20.5419L25.3078 2.9761C25.1269 2.83479 24.8731 2.83479 24.6922 2.9761Z" fill="#99EE63"/>
<g id="Group">
<path id="Vector_4" d="M9.78873 22.5068H5.24048C4.96434 22.5068 4.74048 22.7307 4.74048 23.0068V39.0777C4.74048 39.3538 4.96434 39.5777 5.24048 39.5777H9.78873C10.0649 39.5777 10.2887 39.3538 10.2887 39.0777V23.0068C10.2887 22.7307 10.0649 22.5068 9.78873 22.5068Z" fill="#99EE63"/>
<path id="Vector_5" d="M44.7596 22.5068H40.2113C39.9352 22.5068 39.7113 22.7307 39.7113 23.0068V39.0777C39.7113 39.3538 39.9352 39.5777 40.2113 39.5777H44.7596C45.0357 39.5777 45.2596 39.3538 45.2596 39.0777V23.0068C45.2596 22.7307 45.0357 22.5068 44.7596 22.5068Z" fill="#99EE63"/>
<path id="Vector_6" d="M36.0169 22.5068H31.4686C31.1925 22.5068 30.9686 22.7307 30.9686 23.0068V39.0777C30.9686 39.3538 31.1925 39.5777 31.4686 39.5777H36.0169C36.293 39.5777 36.5169 39.3538 36.5169 39.0777V23.0068C36.5169 22.7307 36.293 22.5068 36.0169 22.5068Z" fill="#99EE63"/>
<path id="Vector_7" d="M27.2741 22.5068H22.7258C22.4497 22.5068 22.2258 22.7307 22.2258 23.0068V39.0777C22.2258 39.3538 22.4497 39.5777 22.7258 39.5777H27.2741C27.5502 39.5777 27.7741 39.3538 27.7741 39.0777V23.0068C27.7741 22.7307 27.5502 22.5068 27.2741 22.5068Z" fill="#99EE63"/>
<path id="Vector_8" d="M18.5314 22.5068H13.9832C13.707 22.5068 13.4832 22.7307 13.4832 23.0068V39.0777C13.4832 39.3538 13.707 39.5777 13.9832 39.5777H18.5314C18.8075 39.5777 19.0314 39.3538 19.0314 39.0777V23.0068C19.0314 22.7307 18.8075 22.5068 18.5314 22.5068Z" fill="#99EE63"/>
</g>
</g>
</svg>
