<svg width="50" height="51" viewBox="0 0 50 51" fill="none" xmlns="http://www.w3.org/2000/svg">
<g id="Verkehr">
<path id="Vector" d="M10.5771 38.6948V42.6448C10.5771 42.9348 10.3571 43.1548 10.0671 43.1548H3.92712C3.64709 43.1548 3.41711 42.9348 3.41711 42.6448V36.7148C4.22711 37.1848 6.06713 37.8448 10.5771 38.6948Z" fill="#99EE63"/>
<path id="Vector_2" d="M46.5472 37.0947V42.6448C46.5472 42.9348 46.3072 43.1547 46.0372 43.1547H39.8872C39.6072 43.1547 39.3772 42.9348 39.3772 42.6448V39.3647C42.8872 38.7548 45.2572 38.0048 46.5472 37.0947Z" fill="#99EE63"/>
<path id="Vector_3" d="M44.5571 21.0548L45.4271 21.0748H45.8271C46.6771 21.0748 47.3671 20.3848 47.3671 19.5347C47.3671 18.6848 46.6771 17.9948 45.8271 17.9948H43.3871C43.1671 17.9948 42.9671 17.8748 42.8671 17.6948L38.0271 9.17475C37.5571 8.35474 36.6771 7.84473 35.7271 7.84473H14.5171C13.5671 7.84473 12.6971 8.35474 12.2271 9.17475L7.38712 17.6948C7.27707 17.8748 7.07712 17.9948 6.8671 17.9948H4.35709C3.4971 17.9948 2.8071 18.6848 2.8071 19.5347C2.8071 20.3848 3.4971 21.0748 4.35709 21.0748H4.82712L5.65708 21.0347C3.88712 23.4247 0.497109 31.8748 3.18711 35.4247C4.03709 36.5547 9.82712 37.6848 15.1871 38.5148C22.5471 39.6547 30.0471 39.7748 37.4171 38.7247C41.9671 38.0648 46.1871 37.0347 47.0671 35.4247C49.1871 31.5148 46.3271 23.4448 44.5571 21.0548ZM8.60709 31.6348C6.89707 31.6348 5.50711 30.2448 5.50711 28.5347C5.50711 26.8348 6.89706 25.4448 8.60709 25.4448C10.3171 25.4448 11.7071 26.8348 11.7071 28.5347C11.7071 30.2447 10.3171 31.6348 8.60709 31.6348ZM34.2171 28.8948L32.6571 33.2148C32.5671 33.3948 32.3871 33.5048 32.1871 33.5048H18.1371C17.9371 33.5048 17.7571 33.3948 17.6771 33.2148L16.1171 28.8948C15.9571 28.5648 16.2071 28.1747 16.5771 28.1747H33.7471C34.1271 28.1747 34.3771 28.5648 34.2171 28.8948ZM11.0471 19.2847C9.9971 19.1747 9.31711 18.1547 9.81711 17.2148L13.3871 10.5748C13.6271 10.1148 14.1071 9.83479 14.6171 9.83479H35.3571C35.8571 9.83479 36.3271 10.1047 36.5771 10.5447L40.3471 17.1848C40.8771 18.1248 40.1971 19.1747 39.1271 19.2847C26.1171 20.6747 24.1371 20.6848 11.0471 19.2847ZM41.0771 31.6348C39.3671 31.6348 37.9871 30.2448 37.9871 28.5347C37.9871 26.8348 39.3671 25.4448 41.0771 25.4448C42.7871 25.4448 44.1771 26.8348 44.1771 28.5347C44.1771 30.2447 42.7871 31.6348 41.0771 31.6348Z" fill="#99EE63"/>
</g>
</svg>
