<svg width="184" height="244" viewBox="0 0 184 244" fill="none" xmlns="http://www.w3.org/2000/svg">
<g clip-path="url(#clip0_1091_225)">
<path d="M112.794 243.108H79.0864L82.8792 189.007C86.5764 190.769 90.6735 191.717 94.9159 191.717C99.9304 191.717 104.736 190.393 108.92 187.973L112.794 243.108Z" fill="#8DEA58"/>
<path d="M174.021 141.271C175.911 146.021 176.951 151.201 176.951 156.621C176.951 179.531 158.341 198.101 135.381 198.101C127.471 198.101 120.071 195.891 113.771 192.061C112.341 194.271 110.531 196.201 108.421 197.781C104.661 200.611 99.9812 202.281 94.9112 202.281C90.6912 202.281 86.7412 201.111 83.3512 199.091C80.4012 197.331 77.8912 194.891 76.0212 192.011C70.2712 195.361 63.5712 197.271 56.4412 197.271C34.8912 197.271 17.4211 179.841 17.4211 158.321L17.4712 158.311C8.51117 152.611 2.18115 143.001 1.07117 131.611C-0.84881 111.991 13.4911 94.5206 33.1012 92.5606C34.5612 77.5906 43.8812 64.9406 56.8712 58.7706V40.6806H50.5112L64.5412 16.4106L78.5612 40.6806H72.2012V54.8106C73.0812 54.7506 73.9712 54.7206 74.8711 54.7206C79.3011 54.7206 83.5712 55.4006 87.5712 56.6806C88.4012 56.0006 89.2612 55.3606 90.1512 54.7606V25.1606H83.7912L97.8112 0.890625L111.841 25.1606H105.481V48.8706C107.041 48.6707 108.641 48.5606 110.261 48.5606C114.911 48.5606 119.351 49.4406 123.421 51.0606V40.4806H117.061L131.081 16.2106L145.111 40.4806H138.751V62.7006C142.831 68.0606 145.421 74.6006 145.931 81.7306C146.401 81.7106 146.871 81.7006 147.341 81.7006C167.091 81.7006 183.101 97.7206 183.101 117.461C183.101 126.601 179.671 134.951 174.021 141.271Z" fill="#8DEA58"/>
</g>
<defs>
<clipPath id="clip0_1091_225">
<rect width="182.202" height="242.218" fill="white" transform="translate(0.898804 0.890625)"/>
</clipPath>
</defs>
</svg>
