<svg width="50" height="51" viewBox="0 0 50 51" fill="none" xmlns="http://www.w3.org/2000/svg">
<g id="Haushalte">
<path id="Vector" d="M47.1701 25.5148H42.9257V47.748C42.9257 48.027 42.7065 48.2462 42.4275 48.2462H29.4849C29.2159 48.2462 28.9867 48.027 28.9867 47.748V36.4449C28.9867 36.1659 28.7675 35.9467 28.4885 35.9467H21.0557C20.7768 35.9467 20.5575 36.1659 20.5575 36.4449V47.748C20.5575 48.027 20.3284 48.2462 20.0594 48.2462H7.39578C7.12675 48.2462 6.8976 48.027 6.8976 47.748V25.5148H2.67302C2.22471 25.5148 2.00548 24.9768 2.32432 24.668L24.5729 2.8578C24.7722 2.66849 25.081 2.66849 25.2703 2.8578L47.5188 24.668C47.8377 24.9768 47.6185 25.5148 47.1701 25.5148Z" fill="#99EE63"/>
<path id="Vector_2" d="M41.9548 17.2413L33.8474 9.2876V4.54408C33.8474 4.26894 34.0705 4.0459 34.3456 4.0459H41.4566C41.7317 4.0459 41.9548 4.26894 41.9548 4.54408L41.9548 17.2413Z" fill="#99EE63"/>
</g>
</svg>
