<svg width="50" height="51" viewBox="0 0 50 51" fill="none" xmlns="http://www.w3.org/2000/svg">
<g id="100125_Icon_wirtschaft 1">
<path id="Vector" d="M32.4872 21.4258V21.4558L32.5372 21.4258H32.4872ZM17.2372 21.4258V21.4558L17.2872 21.4258H17.2372Z" fill="#99EE63"/>
<path id="Vector_2" d="M47.7214 21.4558V12.4258C47.7214 12.0258 47.2814 11.7858 46.9514 12.0058L32.5214 21.4258L32.4714 21.4558V12.4258C32.4714 12.0258 32.0314 11.7858 31.7014 12.0058L17.2714 21.4258L17.2214 21.4558V12.4258C17.2214 12.0258 16.7814 11.7858 16.4514 12.0058L11.9414 14.9458V6.92578C11.9414 6.64581 11.7114 6.42578 11.4414 6.42578H5.71143C5.43146 6.42578 5.21143 6.64581 5.21143 6.92578V19.3458L1.97144 21.4558V46.1058C1.97144 46.3758 2.19141 46.6058 2.47144 46.6058H47.2214C47.5015 46.6058 47.7214 46.3758 47.7214 46.1058V21.4558ZM17.5015 33.1058C17.5015 33.3858 17.2714 33.6058 17.0015 33.6058H6.29144C6.0114 33.6058 5.79144 33.3858 5.79144 33.1058V29.2358C5.79144 28.9558 6.0114 28.7358 6.29144 28.7358H17.0015C17.2714 28.7358 17.5015 28.9558 17.5015 29.2358L17.5015 33.1058ZM30.8414 33.1058C30.8414 33.3858 30.6114 33.6058 30.3414 33.6058H19.6314C19.3514 33.6058 19.1314 33.3858 19.1314 33.1058V29.2358C19.1314 28.9558 19.3514 28.7358 19.6314 28.7358H30.3414C30.6114 28.7358 30.8414 28.9558 30.8414 29.2358V33.1058ZM44.1815 33.1058C44.1815 33.3858 43.9514 33.6058 43.6815 33.6058H32.9714C32.6914 33.6058 32.4714 33.3858 32.4714 33.1058V29.2358C32.4714 28.9558 32.6914 28.7358 32.9714 28.7358H43.6815C43.9514 28.7358 44.1815 28.9558 44.1815 29.2358V33.1058Z" fill="#99EE63"/>
</g>
</svg>
