<?xml version="1.0" encoding="UTF-8"?>
<svg id="Layer_1" data-name="Layer 1" xmlns="http://www.w3.org/2000/svg" viewBox="0 0 629.15866 106.77734">
  <defs>
    <style>
      .cls-1 {
        fill: #070d24;
      }

      .cls-2 {
        fill: #fff;
      }

      .cls-3 {
        fill: #3054f3;
      }
    </style>
  </defs>
  <g>
    <path class="cls-1" d="M136.65768,45.77148V1.25391h8.65332v21.16016L163.99459,1.19141h9.53125l-17.05469,19.77832,18.12012,24.80176h-9.78125l-13.85645-19.21387-5.64258,5.90332v13.31055h-8.65332Z"/>
    <path class="cls-1" d="M177.72604,0h8.40137v35.35059c0,1.51074.25098,2.52734.75195,3.05176.50195.52344,1.19141.78516,2.07031.78516.66797,0,1.35742-.08301,2.06836-.25s1.33789-.37695,1.88086-.62695l1.12891,6.39453c-1.12891.54492-2.44531.96289-3.9502,1.25391-1.50488.29297-2.86328.43945-4.0752.43945-2.63379,0-4.67188-.70117-6.11328-2.10645-1.44238-1.40332-2.16309-3.40527-2.16309-6.00293V0Z"/>
    <path class="cls-1" d="M197.66354,8.33984V0h8.40137v8.33984h-8.40137ZM197.66354,45.77148V12.91602h8.40137v32.85547h-8.40137Z"/>
    <path class="cls-1" d="M264.68893,45.77148h-8.40137v-18.16797c0-2.55273-.44922-4.43848-1.34766-5.65332-.90039-1.21484-2.14258-1.82324-3.73145-1.82324-1.62988,0-3.1875.62891-4.6709,1.88477-1.48438,1.25781-2.53906,2.89453-3.16602,4.91211v18.84766h-8.40234v-18.16797c0-2.59473-.44922-4.48926-1.34766-5.68457-.89941-1.19434-2.14258-1.79199-3.73047-1.79199-1.63086,0-3.18848.6123-4.67188,1.83691-1.48438,1.22461-2.53906,2.83691-3.16602,4.83691v18.9707h-8.40234V13.23047h7.58789v6.07031c1.25391-2.10742,2.9248-3.73047,5.01562-4.86719,2.08984-1.13574,4.49219-1.70508,7.20996-1.70508,2.7168,0,4.83789.66113,6.36426,1.98438,1.52539,1.32227,2.49707,2.95508,2.91602,4.89648,1.33691-2.23047,3.04102-3.93555,5.10938-5.11328,2.06934-1.17773,4.39844-1.76758,6.99121-1.76758,2.04785,0,3.70898.36328,4.98535,1.08594,1.27344.72266,2.26562,1.69434,2.97754,2.91309.70996,1.21875,1.20117,2.59277,1.47363,4.12207.27148,1.5293.40723,3.08008.40723,4.65039v20.27148Z"/>
    <path class="cls-1" d="M269.76803,36.17578c0-2.10547.5957-3.95312,1.78711-5.54297s2.85254-2.81836,4.98438-3.6875c2.13086-.86719,4.57617-1.30078,7.33496-1.30078,1.38086,0,2.7793.10547,4.20117.31445s2.6543.54297,3.69922,1.00195v-1.74707c0-2.05176-.61719-3.63184-1.84961-4.74121-1.23242-1.10742-3.0625-1.66211-5.48633-1.66211-1.79785,0-3.51074.31348-5.1416.94043-1.62891.62695-3.34375,1.54688-5.14062,2.75879l-2.69629-5.51758c2.17285-1.41992,4.39941-2.48633,6.67773-3.19727s4.6709-1.06641,7.17969-1.06641c4.67969,0,8.32812,1.1543,10.94141,3.46289,2.61133,2.30762,3.91797,5.60352,3.91797,9.88867v10.32227c0,.86621.15625,1.48438.4707,1.85547.3125.37109.82422.59766,1.53516.67969v6.83398c-.75195.125-1.43164.22852-2.03711.31348-.60742.08301-1.11914.12598-1.53711.12598-1.67188,0-2.93555-.37695-3.79297-1.12891s-1.39062-1.67188-1.59766-2.75977l-.18945-1.69238c-1.42188,1.83984-3.19727,3.26074-5.32812,4.26367-2.13281,1.00293-4.30664,1.50488-6.52148,1.50488-2.17383,0-4.12793-.44531-5.8623-1.33203-1.73535-.88672-3.09375-2.10547-4.07617-3.6543s-1.47266-3.29395-1.47266-5.23633ZM290.20846,37.80859c.45898-.48828.83594-.97754,1.12891-1.4668.29102-.48828.4375-.9375.4375-1.34473v-3.24121c-1.00195-.40723-2.08984-.72266-3.25977-.94727-1.16992-.22266-2.2793-.33594-3.32227-.33594-2.1748,0-3.96191.45898-5.3623,1.375-1.40039.91797-2.09961,2.13086-2.09961,3.63867,0,.81445.22852,1.58984.68945,2.32227.45898.73438,1.12891,1.32422,2.00586,1.77344.87891.44824,1.92188.67188,3.13574.67188,1.25391,0,2.48633-.23438,3.69922-.70312,1.21094-.46777,2.19336-1.04883,2.94727-1.74219Z"/>
    <path class="cls-1" d="M308.82858,45.77148V1.25391h16.17676c4.84863,0,8.90332.99414,12.16406,2.97852,3.25977,1.98633,5.70508,4.66211,7.33594,8.02539,1.62988,3.36523,2.44531,7.0957,2.44531,11.19238,0,4.51465-.89941,8.44434-2.69629,11.78809-1.79785,3.34375-4.33691,5.93555-7.61816,7.77441-3.28223,1.83984-7.1582,2.75879-11.63086,2.75879h-16.17676ZM338.23483,23.4502c0-2.88379-.52246-5.42285-1.56738-7.61816-1.04492-2.19434-2.5498-3.9082-4.51465-5.14062s-4.34766-1.84961-7.14746-1.84961h-7.52441v29.34277h7.52441c2.8418,0,5.24512-.63672,7.21094-1.91211,1.96387-1.27441,3.45801-3.03027,4.48242-5.2666s1.53613-4.75488,1.53613-7.55566Z"/>
    <path class="cls-1" d="M350.27291,36.17578c0-2.10547.5957-3.95312,1.78711-5.54297s2.85254-2.81836,4.98438-3.6875c2.13184-.86719,4.57715-1.30078,7.33594-1.30078,1.37988,0,2.7793.10547,4.20117.31445,1.4209.20898,2.6543.54297,3.69922,1.00195v-1.74707c0-2.05176-.61719-3.63184-1.84961-4.74121-1.2334-1.10742-3.0625-1.66211-5.48633-1.66211-1.79785,0-3.51074.31348-5.1416.94043-1.62988.62695-3.34473,1.54688-5.1416,2.75879l-2.69531-5.51758c2.17285-1.41992,4.39844-2.48633,6.67676-3.19727s4.67188-1.06641,7.17969-1.06641c4.68066,0,8.32812,1.1543,10.94141,3.46289,2.61133,2.30762,3.91797,5.60352,3.91797,9.88867v10.32227c0,.86621.15723,1.48438.4707,1.85547s.8252.59766,1.53613.67969v6.83398c-.75195.125-1.43262.22852-2.03809.31348-.60645.08301-1.11816.12598-1.53613.12598-1.67188,0-2.93652-.37695-3.79297-1.12891-.85742-.75195-1.39062-1.67188-1.59863-2.75977l-.18848-1.69238c-1.42188,1.83984-3.19727,3.26074-5.3291,4.26367s-4.30566,1.50488-6.52148,1.50488c-2.17383,0-4.12793-.44531-5.8623-1.33203s-3.09375-2.10547-4.0752-3.6543c-.98242-1.54883-1.47363-3.29395-1.47363-5.23633ZM370.71334,37.80859c.45898-.48828.83594-.97754,1.12891-1.4668.29199-.48828.43848-.9375.43848-1.34473v-3.24121c-1.00293-.40723-2.09082-.72266-3.26074-.94727-1.16992-.22266-2.27832-.33594-3.32227-.33594-2.1748,0-3.96094.45898-5.36133,1.375-1.40137.91797-2.10059,2.13086-2.10059,3.63867,0,.81445.22949,1.58984.68945,2.32227.45996.73438,1.12891,1.32422,2.00684,1.77344.87793.44824,1.92188.67188,3.13477.67188,1.25391,0,2.48633-.23438,3.69922-.70312,1.21191-.46777,2.19434-1.04883,2.94727-1.74219Z"/>
    <path class="cls-1" d="M400.62057,46.39844c-2.80078,0-5.47656-.46094-8.02539-1.37891-2.55078-.91992-4.74512-2.27832-6.58398-4.07617l3.00977-5.45508c1.96484,1.58984,3.89746,2.75977,5.7998,3.51172,1.90137.75195,3.73047,1.12891,5.48633,1.12891,1.62988,0,2.93652-.2832,3.91895-.84668.98145-.56445,1.47363-1.41113,1.47363-2.54004,0-.7832-.27246-1.3916-.81543-1.82422-.54395-.43359-1.32715-.81543-2.35156-1.14551-1.02441-.33105-2.26758-.70215-3.73047-1.11426-2.4248-.7832-4.45117-1.54785-6.08203-2.29102-1.62988-.74219-2.85254-1.68066-3.66797-2.81445-.81445-1.13477-1.22266-2.58984-1.22266-4.36426,0-2.14551.55371-3.99121,1.66211-5.53906,1.10645-1.54785,2.65332-2.75488,4.63965-3.62012,1.98438-.86719,4.31543-1.30078,6.99121-1.30078,2.33984,0,4.55566.36719,6.64551,1.09766,2.08984.73145,3.99121,1.91211,5.70605,3.54199l-3.38574,5.3291c-1.67285-1.29492-3.26074-2.24609-4.76562-2.85156s-3.03125-.91016-4.57715-.91016c-.87695,0-1.70312.10352-2.47656.30859-.77344.20605-1.40039.5459-1.88086,1.01953-.48047.47266-.7207,1.14062-.7207,2.00488,0,.78223.21973,1.38965.6582,1.82031.43848.43262,1.10742.8125,2.00684,1.1416.89746.3291,1.99512.69922,3.29102,1.11133,2.63379.74023,4.85938,1.50195,6.67773,2.2832s3.1875,1.73828,4.10742,2.86914c.91895,1.13184,1.37891,2.68457,1.37891,4.66016,0,3.20898-1.19141,5.71875-3.57422,7.5293-2.38184,1.81055-5.58008,2.71484-9.59277,2.71484Z"/>
    <path class="cls-1" d="M450.02682,45.77148h-8.40137v-18.16797c0-2.51172-.49219-4.38672-1.47363-5.62305-.98242-1.23438-2.33105-1.85352-4.04395-1.85352-1.00391,0-2.06934.28613-3.19824.85742-1.12793.57227-2.14258,1.35742-3.04102,2.35742-.89941,1-1.55762,2.15332-1.97461,3.45898v18.9707h-8.40234V0h8.40234v19.30078c1.21191-2.06641,2.8623-3.67773,4.95312-4.83594,2.08984-1.15723,4.36719-1.73633,6.83398-1.73633,2.13184,0,3.86621.36328,5.2041,1.08594s2.38281,1.69434,3.13574,2.91309c.75195,1.21875,1.27441,2.58301,1.56738,4.09082.29199,1.50977.43848,3.07031.43848,4.68164v20.27148Z"/>
    <path class="cls-1" d="M476.04733,46.39844c-2.50879,0-4.74512-.56445-6.70898-1.69336-1.96582-1.12793-3.51172-2.67383-4.64062-4.63867v5.70508h-7.33594V0h8.40234v19.06152c1.16992-1.96387,2.70605-3.51074,4.6084-4.63965,1.90137-1.12891,4.12695-1.69336,6.67773-1.69336,2.13184,0,4.0752.44531,5.83105,1.33398s3.27051,2.11914,4.5459,3.68945c1.27441,1.57031,2.25684,3.36914,2.94629,5.39453.69043,2.02539,1.03516,4.19629,1.03516,6.50977,0,2.31543-.3877,4.48535-1.16016,6.51172-.77441,2.02539-1.84961,3.81348-3.22949,5.36328-1.37891,1.5498-2.99902,2.74902-4.85938,3.59668-1.86035.84668-3.89746,1.27051-6.1123,1.27051ZM473.72701,39.25c1.33691,0,2.55957-.25488,3.66797-.76855,1.10742-.5127,2.06934-1.19824,2.88379-2.05957.81543-.86133,1.44238-1.875,1.88086-3.04492.43945-1.16797.65918-2.38867.65918-3.66016,0-1.7627-.36719-3.39258-1.09766-4.88867-.73145-1.49805-1.73535-2.69629-3.00977-3.59863-1.27539-.90137-2.76953-1.35254-4.48242-1.35254-1.21289,0-2.37305.27734-3.48047.83008-1.10742.55371-2.09082,1.30273-2.94629,2.24414-.85742.94336-1.53613,2.00977-2.03809,3.19922v7.6875c.25098.82031.6582,1.55859,1.22266,2.21484s1.22266,1.21973,1.97461,1.69141c.75293.47266,1.53613.83984,2.35156,1.10742.81543.26562,1.61914.39844,2.41406.39844Z"/>
    <path class="cls-1" d="M512.28659,46.39844c-2.67578,0-5.0791-.44531-7.20996-1.33398-2.13184-.8877-3.94043-2.11719-5.42383-3.68945-1.48438-1.57031-2.62402-3.36719-3.41699-5.39355-.79492-2.02637-1.19141-4.15527-1.19141-6.38672,0-2.27246.39648-4.42285,1.19141-6.44824.79297-2.02539,1.93262-3.82422,3.41699-5.39453,1.4834-1.57031,3.29199-2.80078,5.42383-3.68945,2.13086-.88867,4.53418-1.33398,7.20996-1.33398,2.6748,0,5.06836.44531,7.17969,1.33398,2.10938.88867,3.91797,2.11914,5.42285,3.68945s2.64355,3.36914,3.41699,5.39453,1.16016,4.17578,1.16016,6.44824c0,2.23145-.38672,4.36035-1.16016,6.38672s-1.90234,3.82324-3.38574,5.39355c-1.48438,1.57227-3.29102,2.80176-5.42285,3.68945-2.13184.88867-4.53613,1.33398-7.21094,1.33398ZM503.69674,29.59375c0,1.88672.37598,3.55762,1.12891,5.01367.75195,1.45508,1.77539,2.59375,3.07227,3.41406,1.29492.82031,2.75879,1.22852,4.38867,1.22852,1.58789,0,3.03027-.41992,4.32617-1.25977,1.29492-.84082,2.33008-1.98828,3.10352-3.44336.77344-1.45703,1.16016-3.12695,1.16016-5.01367,0-1.8457-.38672-3.50586-1.16016-4.98242-.77344-1.47559-1.80859-2.62402-3.10352-3.44336-1.2959-.82031-2.73828-1.23047-4.32617-1.23047-1.62988,0-3.09375.41992-4.38867,1.25977-1.29688.8418-2.32031,1.98926-3.07227,3.44531-.75293,1.45508-1.12891,3.12598-1.12891,5.01172Z"/>
    <path class="cls-1" d="M532.85104,36.17578c0-2.10547.5957-3.95312,1.78711-5.54297s2.85254-2.81836,4.98438-3.6875c2.13184-.86719,4.57715-1.30078,7.33594-1.30078,1.37988,0,2.7793.10547,4.20117.31445,1.4209.20898,2.6543.54297,3.69922,1.00195v-1.74707c0-2.05176-.61719-3.63184-1.84961-4.74121-1.2334-1.10742-3.0625-1.66211-5.48633-1.66211-1.79785,0-3.51074.31348-5.1416.94043-1.62988.62695-3.34473,1.54688-5.1416,2.75879l-2.69531-5.51758c2.17285-1.41992,4.39844-2.48633,6.67676-3.19727s4.67188-1.06641,7.17969-1.06641c4.68066,0,8.32812,1.1543,10.94141,3.46289,2.61133,2.30762,3.91797,5.60352,3.91797,9.88867v10.32227c0,.86621.15723,1.48438.4707,1.85547s.8252.59766,1.53613.67969v6.83398c-.75195.125-1.43262.22852-2.03809.31348-.60645.08301-1.11816.12598-1.53613.12598-1.67188,0-2.93652-.37695-3.79297-1.12891-.85742-.75195-1.39062-1.67188-1.59863-2.75977l-.18848-1.69238c-1.42188,1.83984-3.19727,3.26074-5.3291,4.26367s-4.30566,1.50488-6.52148,1.50488c-2.17383,0-4.12793-.44531-5.8623-1.33203s-3.09375-2.10547-4.0752-3.6543c-.98242-1.54883-1.47363-3.29395-1.47363-5.23633ZM553.29147,37.80859c.45898-.48828.83594-.97754,1.12891-1.4668.29199-.48828.43848-.9375.43848-1.34473v-3.24121c-1.00293-.40723-2.09082-.72266-3.26074-.94727-1.16992-.22266-2.27832-.33594-3.32227-.33594-2.1748,0-3.96094.45898-5.36133,1.375-1.40137.91797-2.10059,2.13086-2.10059,3.63867,0,.81445.22949,1.58984.68945,2.32227.45996.73438,1.12891,1.32422,2.00684,1.77344.87793.44824,1.92188.67188,3.13477.67188,1.25391,0,2.48633-.23438,3.69922-.70312,1.21191-.46777,2.19434-1.04883,2.94727-1.74219Z"/>
    <path class="cls-1" d="M590.65963,20.18945c-2.5498,0-4.82715.49219-6.83398,1.47461-2.00586.98242-3.44824,2.39258-4.32617,4.23145v19.87598h-8.40234V13.23047h7.71289v6.70898c1.16992-2.25781,2.65332-4.0332,4.45117-5.33008,1.79688-1.29492,3.69922-2.00586,5.70605-2.13184h1.06543c.25098,0,.45996.02246.62695.06348v7.64844Z"/>
    <path class="cls-1" d="M593.04342,29.53223c0-3.1416.62695-5.9834,1.88086-8.52539s2.98828-4.55762,5.2041-6.0459c2.21484-1.48828,4.74414-2.23242,7.58691-2.23242,2.42383,0,4.6084.5957,6.55176,1.78711,1.94434,1.19141,3.45898,2.70703,4.5459,4.5459V0h8.40234v36.36719c0,.87695.14551,1.50391.43848,1.88086.29199.375.79395.60547,1.50488.68945v6.83398c-1.46387.29199-2.65527.43945-3.57422.43945-1.50488,0-2.74902-.37695-3.73047-1.12891-.98242-.75195-1.53613-1.73438-1.66113-2.94727l-.12598-2.06836c-1.21289,2.04785-2.85254,3.61523-4.92188,4.70117-2.06934,1.08789-4.23242,1.63086-6.48926,1.63086s-4.33691-.43359-6.23828-1.30176c-1.90332-.86816-3.55371-2.06641-4.9541-3.59668-1.40039-1.5293-2.4873-3.31738-3.25977-5.36328-.77441-2.0459-1.16016-4.24805-1.16016-6.60449ZM618.81295,33.83789v-7.6875c-.41797-1.18945-1.08691-2.25586-2.00586-3.19922-.91992-.94141-1.94434-1.69043-3.07227-2.24414-1.12891-.55273-2.25781-.83008-3.38672-.83008-1.2959,0-2.4668.26562-3.51074.79883-1.04492.5332-1.9541,1.25098-2.72754,2.15332s-1.3584,1.94824-1.75586,3.1377c-.39746,1.18848-.5957,2.43945-.5957,3.75,0,1.31348.21973,2.55371.65918,3.7207.43848,1.16992,1.0752,2.18457,1.91211,3.04492.83594.86133,1.80762,1.53906,2.91504,2.03125,1.10742.49121,2.30957.73633,3.60547.73633.79395,0,1.59863-.13281,2.41406-.39844.81543-.26758,1.58789-.63477,2.32031-1.10742.73047-.47168,1.37891-1.04492,1.94336-1.72266.56445-.67578.99219-1.4043,1.28516-2.18359Z"/>
  </g>
  <g>
    <path class="cls-1" d="M142.34518,61.63379l14.5459,19.37402,14.4834-19.37402h4.9541l-17.05469,22.57129,16.55273,21.94531h-4.95312l-13.98242-18.74707-14.04492,18.74707h-5.01562l16.55273-21.94531-17.05469-22.57129h5.0166Z"/>
    <path class="cls-1" d="M208.80612,106.15039h-4.26367v-18.12891c0-3.6543-.64844-6.40625-1.94336-8.25391-1.29688-1.84766-3.15723-2.77246-5.58105-2.77246-1.58887,0-3.16602.4043-4.7334,1.21289s-2.94727,1.90723-4.13867,3.2959c-1.19141,1.38965-2.03711,2.97559-2.53906,4.75879v19.8877h-4.26367v-45.77148h4.26367v20.64648c1.29492-2.41016,3.10352-4.33203,5.42383-5.7666,2.31934-1.43457,4.7959-2.15137,7.42969-2.15137,1.88086,0,3.47949.33301,4.79688.99707,1.31641.66504,2.38184,1.63184,3.19727,2.89941s1.41113,2.74414,1.78711,4.42676c.37598,1.68359.56445,3.58496.56445,5.7041v19.01562Z"/>
    <path class="cls-1" d="M215.26412,96.80762c0-2.03418.58398-3.78906,1.75488-5.26465,1.16992-1.47461,2.79004-2.61621,4.85938-3.42676,2.06934-.80957,4.46191-1.21484,7.17969-1.21484,1.58789,0,3.23828.12598,4.95312.37598,1.71289.25098,3.23828.62695,4.57715,1.12891v-2.75098c0-2.74121-.81543-4.92285-2.44531-6.54297-1.63086-1.62109-3.8877-2.43066-6.77148-2.43066-1.75586,0-3.48047.32422-5.17285.97168-1.69336.64844-3.45996,1.59863-5.29883,2.85254l-1.62988-3.00977c2.13184-1.46191,4.22168-2.55957,6.27051-3.29102,2.04688-.73145,4.1377-1.09766,6.26953-1.09766,4.0127,0,7.18945,1.14258,9.53027,3.42676,2.34082,2.28516,3.51172,5.44238,3.51172,9.4707v15.01465c0,.58203.125,1.00879.37598,1.27734.25098.27051.64746.42676,1.19141.46777v3.38574c-.46094.04102-.85742.08301-1.19141.125-.33496.04199-.58594.04199-.75293,0-1.04492-.04199-1.83984-.37598-2.38184-1.00293-.54395-.62695-.83691-1.29492-.87793-2.00586l-.0625-2.38281c-1.46387,1.88086-3.36523,3.33398-5.70605,4.35742-2.3418,1.02344-4.72461,1.53613-7.14746,1.53613-2.09082,0-3.98145-.44629-5.6748-1.33887-1.69336-.89355-3.00977-2.09766-3.9502-3.61426-.94043-1.51562-1.41016-3.18848-1.41016-5.0166ZM237.14596,99.29199c.45898-.58008.81543-1.13867,1.06543-1.67773.25098-.53809.37695-1.01367.37695-1.42969v-4.72168c-1.42188-.53809-2.89551-.95215-4.4209-1.24219-1.52637-.29004-3.0625-.43457-4.6084-.43457-3.05176,0-5.51758.60059-7.39844,1.80078-1.88086,1.20117-2.82129,2.83789-2.82129,4.9082,0,1.20215.31348,2.33105.94043,3.3877.62695,1.05566,1.5459,1.92578,2.75879,2.60938,1.21191.68359,2.63379,1.02441,4.26367,1.02441,2.04785,0,3.95996-.39258,5.7373-1.17969,1.77539-.78711,3.14453-1.80176,4.10645-3.04492Z"/>
    <path class="cls-1" d="M252.06881,66.64941v-6.27051h4.26367v6.27051h-4.26367ZM252.06881,106.15039v-32.66699h4.26367v32.66699h-4.26367Z"/>
    <path class="cls-1" d="M293.19869,106.15039h-4.26367v-18.12891c0-3.82129-.56348-6.61328-1.69238-8.37891-1.12891-1.76465-2.90625-2.64746-5.33008-2.64746-1.67188,0-3.32227.4043-4.95312,1.21289-1.62988.80859-3.0625,1.90723-4.29492,3.2959-1.2334,1.38965-2.12207,2.97559-2.66406,4.75879v19.8877h-4.26367v-32.54102h3.88672v7.41602c.87793-1.5791,2.02734-2.96094,3.44922-4.14648,1.41992-1.18359,3.0293-2.10938,4.82715-2.77441,1.79688-.66406,3.65723-.99707,5.58105-.99707,1.7959,0,3.32227.33301,4.57715.99707,1.25391.66504,2.25684,1.61133,3.00879,2.83789.75293,1.22656,1.2959,2.70117,1.63086,4.42578.33398,1.72559.50098,3.64746.50098,5.7666v19.01562Z"/>
  </g>
  <rect class="cls-3" y="1.21032" width="105" height="105" rx="5.82538" ry="5.82538"/>
  <rect class="cls-2" x="8" y="71.28099" width="24.0438" height="26.86955"/>
  <rect class="cls-2" x="40.4781" y="46.53774" width="24.0438" height="51.6128"/>
  <rect class="cls-2" x="72.9562" y="9.21032" width="24.0438" height="88.94022"/>
</svg>