<svg xmlns="http://www.w3.org/2000/svg" width="220" height="190" viewBox="0 0 220 190" fill="none">
  <path d="M38.0769 0.714355H105.769V31.6901H38.0769V0.714355Z" fill="#3155F3"/>
  <path d="M114.231 0.714355H181.923V31.6901H114.231V0.714355Z" fill="#3155F3"/>
  <path d="M0 40.1133H67.6923V71.089H0V40.1133Z" fill="#3155F3"/>
  <path d="M76.1538 40.1133H143.846V71.089H76.1538V40.1133Z" fill="#3155F3"/>
  <path d="M152.308 40.1133H220V71.089H152.308V40.1133Z" fill="#3155F3"/>
  <path d="M38.0769 79.5122H105.769V110.488H38.0769V79.5122Z" fill="#3155F3"/>
  <path d="M114.231 79.5122H181.923V110.488H114.231V79.5122Z" fill="#3155F3"/>
  <path d="M0 118.911H67.6923V149.887H0V118.911Z" fill="#3155F3"/>
  <path d="M76.1538 118.911H143.846V149.887H76.1538V118.911Z" fill="#3155F3"/>
  <path d="M152.308 118.911H220V149.887H152.308V118.911Z" fill="#3155F3"/>
  <path d="M38.0769 158.31H105.769V189.286H38.0769V158.31Z" fill="#3155F3"/>
  <path d="M114.231 158.31H181.923V189.286H114.231V158.31Z" fill="#3155F3"/>
</svg>