<svg width="50" height="50" viewBox="0 0 50 50" fill="none" xmlns="http://www.w3.org/2000/svg">
<path d="M42.5 12H17.5C16.6716 12 16 12.6716 16 13.5C16 14.3284 16.6716 15 17.5 15H42.5C43.3284 15 44 14.3284 44 13.5C44 12.6716 43.3284 12 42.5 12Z" fill="#3054F3"/>
<path d="M42.5 32H12.5C11.6716 32 11 32.6716 11 33.5C11 34.3284 11.6716 35 12.5 35H42.5C43.3284 35 44 34.3284 44 33.5C44 32.6716 43.3284 32 42.5 32Z" fill="#3054F3"/>
<path d="M17.5 18H4.5C3.67157 18 3 18.6716 3 19.5C3 20.3284 3.67157 21 4.5 21H17.5C18.3284 21 19 20.3284 19 19.5C19 18.6716 18.3284 18 17.5 18Z" fill="#3054F3"/>
<path d="M42.5 18H29.5C28.6716 18 28 18.6716 28 19.5C28 20.3284 28.6716 21 29.5 21H42.5C43.3284 21 44 20.3284 44 19.5C44 18.6716 43.3284 18 42.5 18Z" fill="#3054F3"/>
<path d="M32.5 25H7.5C6.67157 25 6 25.6716 6 26.5C6 27.3284 6.67157 28 7.5 28H32.5C33.3284 28 34 27.3284 34 26.5C34 25.6716 33.3284 25 32.5 25Z" fill="#3054F3"/>
</svg>
