<svg width="50" height="50" viewBox="0 0 50 50" fill="none" xmlns="http://www.w3.org/2000/svg">
<mask id="mask0_692_11318" style="mask-type:luminance" maskUnits="userSpaceOnUse" x="1" y="9" width="47" height="27">
<path d="M47.949 9.45374H1.89941V36H47.949V9.45374Z" fill="white"/>
</mask>
<g mask="url(#mask0_692_11318)">
<path d="M47.9486 24.3476C47.9915 28.1122 45.0109 31.2525 41.3138 31.2961H40.896C41.0174 30.6877 41.0757 30.0623 41.0686 29.4284C41.0138 24.5924 37.1322 20.697 32.3959 20.697C32.3614 20.697 32.3268 20.697 32.2935 20.6983H32.2304C31.7162 18.3106 30.4652 16.1411 28.6357 14.4976C27.4525 13.4359 26.0801 12.6432 24.6064 12.1536C26.2432 10.5101 28.4893 9.48349 30.9782 9.4544C35.7419 9.39744 39.6997 13.0105 40.2211 17.6925C40.5329 17.644 40.8519 17.6161 41.1781 17.6125C44.8752 17.5689 47.9058 20.5844 47.9486 24.3476Z" fill="#3054F3"/>
<path d="M38.6878 29.4563C38.695 30.0853 38.614 30.7023 38.4486 31.2925C38.1653 32.3142 37.6332 33.256 36.8822 34.0426C35.7001 35.2837 34.1277 35.9782 32.453 36L8.99181 35.9673H8.97632C8.94896 35.9685 8.9216 35.9685 8.89419 35.9685C5.07447 35.9685 1.94393 32.827 1.89989 28.9279C1.87847 27.025 2.58551 25.2276 3.89129 23.8665C5.19707 22.5066 6.94565 21.7443 8.81444 21.7224C9.45605 21.7139 10.0928 21.7964 10.7047 21.9624L11.889 22.2872L12.1711 21.0716C13.1269 16.9568 16.7229 14.0492 20.9164 13.9995C21.6496 13.9898 22.3638 14.0673 23.0506 14.2237C26.7478 15.0648 29.6129 18.1773 30.0545 22.1369L30.1937 23.3902L31.4186 23.1974C31.7161 23.1514 32.0197 23.1247 32.3209 23.1223C32.3458 23.1211 32.3709 23.1211 32.3946 23.1211C35.8323 23.1211 38.6486 25.9475 38.6878 29.4563Z" fill="#3054F3"/>
</g>
</svg>
