<svg width="50" height="50" viewBox="0 0 50 50" fill="none" xmlns="http://www.w3.org/2000/svg">
<mask id="mask0_711_11303" style="mask-type:luminance" maskUnits="userSpaceOnUse" x="1" y="3" width="47" height="27">
<path d="M47.949 3.45374H1.89941V30H47.949V3.45374Z" fill="white"/>
</mask>
<g mask="url(#mask0_711_11303)">
<path d="M43.6878 19.4563C43.695 20.0853 43.614 20.7023 43.4486 21.2925C43.1653 22.3142 42.6332 23.256 41.8822 24.0426C40.7001 25.2837 39.1277 25.9782 37.453 26L13.9918 25.9673H13.9763C13.949 25.9685 13.9216 25.9685 13.8942 25.9685C10.0745 25.9685 6.94393 22.827 6.89989 18.9279C6.87847 17.025 7.58551 15.2276 8.89129 13.8665C10.1971 12.5066 11.9456 11.7443 13.8144 11.7224C14.456 11.7139 15.0928 11.7964 15.7047 11.9624L16.889 12.2872L17.1711 11.0716C18.1269 6.9568 21.7229 4.04917 25.9164 3.99947C26.6496 3.98978 27.3638 4.06735 28.0506 4.2237C31.7478 5.06481 34.6129 8.17728 35.0545 12.1369L35.1937 13.3902L36.4186 13.1974C36.7161 13.1514 37.0197 13.1247 37.3209 13.1223C37.3458 13.1211 37.3709 13.1211 37.3946 13.1211C40.8323 13.1211 43.6486 15.9475 43.6878 19.4563Z" fill="#3054F3"/>
</g>
<path d="M21.7436 17.181L9.19336 31.8582L14.3487 30.4191L11.5604 39.7862C11.504 39.976 11.1286 40.9523 11.2621 40.7885L24.1553 24.9592L16.8588 27.4836L21.7436 17.181Z" fill="#3054F3" stroke="white" stroke-width="1.2" stroke-miterlimit="10" stroke-linecap="round"/>
<path d="M26.6003 27.4382L24.0366 31.9178C23.3912 33.0455 23.6284 34.4201 24.6233 35.3175C25.645 36.2391 27.317 36.2391 28.3388 35.3175L28.5192 35.1547C29.4114 34.35 29.6417 33.1244 29.0935 32.0993L26.6003 27.4382Z" fill="#3054F3"/>
<path d="M33.6003 32.4382L31.0366 36.9178C30.3912 38.0455 30.6284 39.4201 31.6233 40.3175C32.645 41.2391 34.317 41.2391 35.3388 40.3175L35.5192 40.1547C36.4114 39.35 36.6417 38.1244 36.0935 37.0993L33.6003 32.4382Z" fill="#3054F3"/>
</svg>
