<svg width="50" height="50" viewBox="0 0 50 50" fill="none" xmlns="http://www.w3.org/2000/svg">
<mask id="mask0_711_11229" style="mask-type:luminance" maskUnits="userSpaceOnUse" x="1" y="2" width="47" height="27">
<path d="M47.949 2.45374H1.89941V29H47.949V2.45374Z" fill="white"/>
</mask>
<g mask="url(#mask0_711_11229)">
<path d="M42.6878 18.4563C42.695 19.0853 42.614 19.7023 42.4486 20.2925C42.1653 21.3142 41.6332 22.256 40.8822 23.0426C39.7001 24.2837 38.1277 24.9782 36.453 25L12.9918 24.9673H12.9763C12.949 24.9685 12.9216 24.9685 12.8942 24.9685C9.07447 24.9685 5.94393 21.827 5.89989 17.9279C5.87847 16.025 6.58551 14.2276 7.89129 12.8665C9.19707 11.5066 10.9456 10.7443 12.8144 10.7224C13.456 10.7139 14.0928 10.7964 14.7047 10.9624L15.889 11.2872L16.1711 10.0716C17.1269 5.9568 20.7229 3.04917 24.9164 2.99947C25.6496 2.98978 26.3638 3.06735 27.0506 3.2237C30.7478 4.06481 33.6129 7.17728 34.0545 11.1369L34.1937 12.3902L35.4186 12.1974C35.7161 12.1514 36.0197 12.1247 36.3209 12.1223C36.3458 12.1211 36.3709 12.1211 36.3946 12.1211C39.8323 12.1211 42.6486 14.9475 42.6878 18.4563Z" fill="#3054F3"/>
</g>
<path d="M11.9998 26H11.9998C11.5396 26 11.1665 26.3731 11.1665 26.8333V35.1667C11.1665 35.6269 11.5396 36 11.9998 36H11.9998C12.4601 36 12.8332 35.6269 12.8332 35.1667V26.8333C12.8332 26.3731 12.4601 26 11.9998 26Z" fill="#3054F3"/>
<path d="M7 31V31C7 31.4603 7.37309 31.8334 7.83333 31.8334H16.1667C16.6269 31.8334 17 31.4603 17 31V31C17 30.5398 16.6269 30.1667 16.1667 30.1667H7.83333C7.37309 30.1667 7 30.5398 7 31Z" fill="#3054F3"/>
<path d="M8.46445 34.5355L8.46446 34.5355C8.78989 34.8609 9.31753 34.8609 9.64296 34.5355L15.5355 28.6429C15.861 28.3175 15.861 27.7899 15.5355 27.4644L15.5355 27.4644C15.2101 27.139 14.6825 27.139 14.357 27.4644L8.46445 33.357C8.13902 33.6824 8.13902 34.2101 8.46445 34.5355Z" fill="#3054F3"/>
<path d="M8.46426 27.4645L8.46425 27.4645C8.13882 27.7899 8.13882 28.3175 8.46425 28.643L14.3568 34.5355C14.6823 34.861 15.2099 34.861 15.5353 34.5355L15.5353 34.5355C15.8608 34.2101 15.8608 33.6825 15.5353 33.357L9.64277 27.4645C9.31733 27.139 8.7897 27.139 8.46426 27.4645Z" fill="#3054F3"/>
<path d="M22.2696 35.6801C22.1215 35.343 21.7282 35.1898 21.3911 35.3379C21.054 35.486 20.9008 35.8793 21.0489 36.2164L23.7307 42.3199C23.8788 42.657 24.2722 42.8102 24.6092 42.6621C24.9463 42.514 25.0995 42.1206 24.9514 41.7836L22.2696 35.6801Z" fill="#3054F3"/>
<path d="M19.68 39.7305C19.3429 39.8786 19.1897 40.2719 19.3378 40.609C19.4859 40.9461 19.8792 41.0993 20.2163 40.9512L26.3198 38.2694C26.6569 38.1213 26.8101 37.728 26.662 37.3909C26.5139 37.0538 26.1205 36.9006 25.7834 37.0487L19.68 39.7305Z" fill="#3054F3"/>
<path d="M21.169 41.8641C21.0353 42.2072 21.2051 42.5937 21.5482 42.7273C21.8913 42.8609 22.2778 42.6911 22.4114 42.348L24.8309 36.1359C24.9645 35.7928 24.7947 35.4064 24.4516 35.2727C24.1086 35.1391 23.7221 35.3089 23.5885 35.652L21.169 41.8641Z" fill="#3054F3"/>
<path d="M19.2727 37.5482L19.2727 37.5482C19.1391 37.8913 19.3089 38.2778 19.652 38.4114L25.8641 40.8309C26.2072 40.9645 26.5936 40.7947 26.7272 40.4517L26.7273 40.4516C26.8609 40.1086 26.6911 39.7221 26.348 39.5885L20.1359 37.169C19.7928 37.0353 19.4063 37.2051 19.2727 37.5482Z" fill="#3054F3"/>
<path d="M32.5772 27.2706L32.0552 27.5C31.7181 27.6481 31.5649 28.0415 31.713 28.3785L35.7711 37.6143C35.9192 37.9514 36.3125 38.1046 36.6496 37.9565L37.1717 37.7271C37.5087 37.579 37.6619 37.1857 37.5138 36.8486L33.4558 27.6128C33.3076 27.2757 32.9143 27.1225 32.5772 27.2706Z" fill="#3054F3"/>
<path d="M29.2705 34.6497L29.4999 35.1718C29.648 35.5088 30.0413 35.662 30.3784 35.5139L39.6142 31.4559C39.9513 31.3077 40.1045 30.9144 39.9564 30.5773L39.727 30.0553C39.5789 29.7182 39.1856 29.565 38.8485 29.7131L29.6127 33.7712C29.2756 33.9193 29.1224 34.3126 29.2705 34.6497Z" fill="#3054F3"/>
<path d="M32.2752 37.8314L32.8065 38.0383C33.1496 38.1719 33.5361 38.0021 33.6697 37.6591L37.3309 28.2589C37.4645 27.9158 37.2947 27.5293 36.9516 27.3957L36.4203 27.1888C36.0772 27.0551 35.6908 27.2249 35.5571 27.568L31.8959 36.9682C31.7623 37.3113 31.9321 37.6977 32.2752 37.8314Z" fill="#3054F3"/>
<path d="M29.3957 30.2753L29.1887 30.8067C29.0551 31.1497 29.2249 31.5362 29.568 31.6698L38.9682 35.331C39.3113 35.4647 39.6977 35.2949 39.8313 34.9518L40.0383 34.4204C40.1719 34.0773 40.0021 33.6909 39.659 33.5573L30.2588 29.896C29.9158 29.7624 29.5293 29.9322 29.3957 30.2753Z" fill="#3054F3"/>
</svg>
