<svg width="50" height="50" viewBox="0 0 50 50" fill="none" xmlns="http://www.w3.org/2000/svg">
<mask id="mask0_711_11248" style="mask-type:luminance" maskUnits="userSpaceOnUse" x="1" y="2" width="47" height="27">
<path d="M47.949 2.45374H1.89941V29H47.949V2.45374Z" fill="white"/>
</mask>
<g mask="url(#mask0_711_11248)">
<path d="M44.6878 19.4563C44.695 20.0853 44.614 20.7023 44.4486 21.2925C44.1653 22.3142 43.6332 23.256 42.8822 24.0426C41.7001 25.2837 40.1277 25.9782 38.453 26L14.9918 25.9673H14.9763C14.949 25.9685 14.9216 25.9685 14.8942 25.9685C11.0745 25.9685 7.94393 22.827 7.89989 18.9279C7.87847 17.025 8.58551 15.2276 9.89129 13.8665C11.1971 12.5066 12.9456 11.7443 14.8144 11.7224C15.456 11.7139 16.0928 11.7964 16.7047 11.9624L17.889 12.2872L18.1711 11.0716C19.1269 6.9568 22.7229 4.04917 26.9164 3.99947C27.6496 3.98978 28.3638 4.06735 29.0506 4.2237C32.7478 5.06481 35.6129 8.17728 36.0545 12.1369L36.1937 13.3902L37.4186 13.1974C37.7161 13.1514 38.0197 13.1247 38.3209 13.1223C38.3458 13.1211 38.3709 13.1211 38.3946 13.1211C41.8323 13.1211 44.6486 15.9475 44.6878 19.4563Z" fill="#3054F3"/>
</g>
<path d="M10.7544 28.6069L8.78891 32.0411C8.29414 32.9056 8.47601 33.9595 9.2387 34.6475C10.022 35.354 11.3038 35.354 12.0871 34.6475L12.2255 34.5227C12.9094 33.9058 13.086 32.9661 12.6657 32.1803L10.7544 28.6069Z" fill="#3054F3"/>
<path d="M19.206 31.9287L17.2406 35.3629C16.7458 36.2274 16.9277 37.2813 17.6904 37.9692C18.4737 38.6758 19.7555 38.6758 20.5388 37.9692L20.6771 37.8445C21.3611 37.2275 21.5377 36.2879 21.1174 35.5021L19.206 31.9287Z" fill="#3054F3"/>
<path d="M28.166 27.4296L26.2005 30.8638C25.7058 31.7283 25.8876 32.7821 26.6503 33.4701C27.4336 34.1766 28.7154 34.1766 29.4988 33.4701L29.6371 33.3453C30.321 32.7284 30.4977 31.7888 30.0774 31.003L28.166 27.4296Z" fill="#3054F3"/>
<path d="M35.166 35.4296L33.2005 38.8638C32.7058 39.7283 32.8876 40.7821 33.6503 41.4701C34.4336 42.1766 35.7154 42.1766 36.4988 41.4701L36.6371 41.3453C37.321 40.7284 37.4977 39.7888 37.0773 39.003L35.166 35.4296Z" fill="#3054F3"/>
<path d="M41.166 26.4296L39.2005 29.8638C38.7058 30.7283 38.8876 31.7821 39.6503 32.4701C40.4336 33.1766 41.7154 33.1766 42.4988 32.4701L42.6371 32.3453C43.321 31.7284 43.4977 30.7888 43.0773 30.003L41.166 26.4296Z" fill="#3054F3"/>
</svg>
