<svg width="50" height="50" viewBox="0 0 50 50" fill="none" xmlns="http://www.w3.org/2000/svg">
<path d="M14.0589 23.5389C11.023 16.7514 12.4493 9.10229 17.0792 3.87706C17.5463 3.34998 17.069 2.5601 16.3852 2.72824C14.944 3.08259 13.5185 3.61911 12.1375 4.35159C3.98433 8.67607 0.295251 18.7101 3.69922 27.2885C7.57445 37.0545 18.7538 41.5319 28.2451 37.2866C29.5709 36.6936 30.7907 35.9617 31.8968 35.1167C32.2152 34.8735 32.0409 34.3568 31.6407 34.375C24.3325 34.7076 17.2267 30.6213 14.0589 23.5389Z" fill="#3054F3"/>
<path d="M41.5332 17.5245L41.3893 21.394L45.0249 22.7267C45.6316 22.9491 45.5993 23.8179 44.9778 23.9946L41.2532 25.0535L41.1092 28.923C41.0852 29.5687 40.2489 29.8065 39.8888 29.2699L37.7308 26.0548L34.0062 27.1137C33.3846 27.2904 32.9001 26.5685 33.2991 26.0602L35.6899 23.0143L33.5319 19.7992C33.1718 19.2627 33.7087 18.5788 34.3154 18.8012L37.951 20.1338L40.3419 17.0879C40.7409 16.5796 41.5572 16.8788 41.5332 17.5245Z" fill="#3054F3"/>
<path d="M36.4065 36.4116L36.3007 39.2579L38.9749 40.2381C39.4734 40.4208 39.4468 41.1347 38.9361 41.2799L36.1965 42.0587L36.0906 44.9049C36.0709 45.4355 35.3838 45.6308 35.0879 45.19L33.5005 42.8251L30.7609 43.604C30.2502 43.7492 29.8521 43.156 30.1799 42.7384L31.9385 40.498L30.3512 38.1331C30.0553 37.6923 30.4964 37.1303 30.9949 37.3131L33.6691 38.2933L35.4277 36.0528C35.7555 35.6352 36.4263 35.8811 36.4065 36.4116Z" fill="#3054F3"/>
<path d="M24.8337 12.6673L24.7171 15.8026L27.663 16.8824C28.076 17.0338 28.054 17.6252 27.6309 17.7455L24.6129 18.6035L24.4963 21.7388C24.48 22.1784 23.9107 22.3402 23.6655 21.975L21.917 19.3699L18.8991 20.2279C18.476 20.3482 18.1461 19.8568 18.4177 19.5107L20.355 17.0428L18.6064 14.4377C18.3613 14.0725 18.7267 13.6069 19.1397 13.7583L22.0856 14.8381L24.0228 12.3701C24.2944 12.0241 24.8501 12.2277 24.8337 12.6673Z" fill="#3054F3"/>
</svg>
