<svg width="50" height="50" viewBox="0 0 50 50" fill="none" xmlns="http://www.w3.org/2000/svg">
<mask id="mask0_729_11331" style="mask-type:luminance" maskUnits="userSpaceOnUse" x="1" y="2" width="47" height="27">
<path d="M47.949 2.45374H1.89941V29H47.949V2.45374Z" fill="white"/>
</mask>
<g mask="url(#mask0_729_11331)">
<path d="M41.6878 18.4563C41.695 19.0853 41.614 19.7023 41.4486 20.2925C41.1653 21.3142 40.6332 22.256 39.8822 23.0426C38.7001 24.2837 37.1277 24.9782 35.453 25L11.9918 24.9673H11.9763C11.949 24.9685 11.9216 24.9685 11.8942 24.9685C8.07447 24.9685 4.94393 21.827 4.89989 17.9279C4.87847 16.025 5.58551 14.2276 6.89129 12.8665C8.19707 11.5066 9.94565 10.7443 11.8144 10.7224C12.456 10.7139 13.0928 10.7964 13.7047 10.9624L14.889 11.2872L15.1711 10.0716C16.1269 5.9568 19.7229 3.04917 23.9164 2.99947C24.6496 2.98978 25.3638 3.06735 26.0506 3.2237C29.7478 4.06481 32.6129 7.17728 33.0545 11.1369L33.1937 12.3902L34.4186 12.1974C34.7161 12.1514 35.0197 12.1247 35.3209 12.1223C35.3458 12.1211 35.3709 12.1211 35.3946 12.1211C38.8323 12.1211 41.6486 14.9475 41.6878 18.4563Z" fill="#3054F3"/>
</g>
<path d="M29.5005 35.0004C30.3289 35.0004 31.0005 34.3288 31.0005 33.5004C31.0005 32.6719 30.3289 32.0004 29.5005 32.0004C28.6721 32.0004 28.0005 32.6719 28.0005 33.5004C28.0005 34.3288 28.6721 35.0004 29.5005 35.0004Z" fill="#3054F3"/>
<path d="M17.5 30C18.3284 30 19 29.3284 19 28.5C19 27.6716 18.3284 27 17.5 27C16.6716 27 16 27.6716 16 28.5C16 29.3284 16.6716 30 17.5 30Z" fill="#3054F3"/>
<path d="M19.5 35C20.3284 35 21 34.3284 21 33.5C21 32.6716 20.3284 32 19.5 32C18.6716 32 18 32.6716 18 33.5C18 34.3284 18.6716 35 19.5 35Z" fill="#3054F3"/>
<path d="M11.5 40C12.3284 40 13 39.3284 13 38.5C13 37.6716 12.3284 37 11.5 37C10.6716 37 10 37.6716 10 38.5C10 39.3284 10.6716 40 11.5 40Z" fill="#3054F3"/>
<path d="M31.5 40C32.3284 40 33 39.3284 33 38.5C33 37.6716 32.3284 37 31.5 37C30.6716 37 30 37.6716 30 38.5C30 39.3284 30.6716 40 31.5 40Z" fill="#3054F3"/>
<path d="M7.5 30C8.32843 30 9 29.3284 9 28.5C9 27.6716 8.32843 27 7.5 27C6.67157 27 6 27.6716 6 28.5C6 29.3284 6.67157 30 7.5 30Z" fill="#3054F3"/>
<path d="M9.5 35C10.3284 35 11 34.3284 11 33.5C11 32.6716 10.3284 32 9.5 32C8.67157 32 8 32.6716 8 33.5C8 34.3284 8.67157 35 9.5 35Z" fill="#3054F3"/>
<path d="M27.5005 30.0004C28.3289 30.0004 29.0005 29.3288 29.0005 28.5004C29.0005 27.6719 28.3289 27.0004 27.5005 27.0004C26.6721 27.0004 26.0005 27.6719 26.0005 28.5004C26.0005 29.3288 26.6721 30.0004 27.5005 30.0004Z" fill="#3054F3"/>
<path d="M39.5005 35.0004C40.3289 35.0004 41.0005 34.3288 41.0005 33.5004C41.0005 32.6719 40.3289 32.0004 39.5005 32.0004C38.6721 32.0004 38.0005 32.6719 38.0005 33.5004C38.0005 34.3288 38.6721 35.0004 39.5005 35.0004Z" fill="#3054F3"/>
<path d="M37.5005 30.0004C38.3289 30.0004 39.0005 29.3288 39.0005 28.5004C39.0005 27.6719 38.3289 27.0004 37.5005 27.0004C36.6721 27.0004 36.0005 27.6719 36.0005 28.5004C36.0005 29.3288 36.6721 30.0004 37.5005 30.0004Z" fill="#3054F3"/>
</svg>
