<svg width="50" height="50" viewBox="0 0 50 50" fill="none" xmlns="http://www.w3.org/2000/svg">
<path d="M16.3889 14.2678L10.732 8.61095C10.1463 8.02517 9.19651 8.02517 8.61073 8.61095C8.02494 9.19674 8.02494 10.1465 8.61073 10.7323L14.2676 16.3891C14.8534 16.9749 15.8031 16.9749 16.3889 16.3891C16.9747 15.8033 16.9747 14.8536 16.3889 14.2678Z" fill="#3054F3"/>
<path d="M26 11.5V3.5C26 2.67157 25.3284 2 24.5 2C23.6716 2 23 2.67157 23 3.5V11.5C23 12.3284 23.6716 13 24.5 13C25.3284 13 26 12.3284 26 11.5Z" fill="#3054F3"/>
<path d="M46.5 23H38.5C37.6716 23 37 23.6716 37 24.5C37 25.3284 37.6716 26 38.5 26H46.5C47.3284 26 48 25.3284 48 24.5C48 23.6716 47.3284 23 46.5 23Z" fill="#3054F3"/>
<path d="M11.5 23H3.5C2.67157 23 2 23.6716 2 24.5C2 25.3284 2.67157 26 3.5 26H11.5C12.3284 26 13 25.3284 13 24.5C13 23.6716 12.3284 23 11.5 23Z" fill="#3054F3"/>
<path d="M27 46.5V38.5C27 37.6716 26.3284 37 25.5 37C24.6716 37 24 37.6716 24 38.5V46.5C24 47.3284 24.6716 48 25.5 48C26.3284 48 27 47.3284 27 46.5Z" fill="#3054F3"/>
<path d="M41.3889 39.2678L35.732 33.611C35.1463 33.0252 34.1965 33.0252 33.6107 33.611C33.0249 34.1967 33.0249 35.1465 33.6107 35.7323L39.2676 41.3891C39.8534 41.9749 40.8031 41.9749 41.3889 41.3891C41.9747 40.8033 41.9747 39.8536 41.3889 39.2678Z" fill="#3054F3"/>
<path d="M35.7322 16.3891L41.389 10.7323C41.9748 10.1465 41.9748 9.19676 41.389 8.61097C40.8033 8.02518 39.8535 8.02518 39.2677 8.61097L33.6109 14.2678C33.0251 14.8536 33.0251 15.8034 33.6109 16.3891C34.1967 16.9749 35.1464 16.9749 35.7322 16.3891Z" fill="#3054F3"/>
<path d="M10.7322 41.3891L16.389 35.7323C16.9748 35.1465 16.9748 34.1968 16.389 33.611C15.8033 33.0252 14.8535 33.0252 14.2677 33.611L8.61087 39.2678C8.02509 39.8536 8.02509 40.8034 8.61087 41.3891C9.19666 41.9749 10.1464 41.9749 10.7322 41.3891Z" fill="#3054F3"/>
<path d="M25 35C30.5228 35 35 30.5228 35 25C35 19.4772 30.5228 15 25 15C19.4772 15 15 19.4772 15 25C15 30.5228 19.4772 35 25 35Z" fill="#3054F3"/>
</svg>
