<svg width="50" height="50" viewBox="0 0 50 50" fill="none" xmlns="http://www.w3.org/2000/svg">
<path d="M9.73389 26.9788L12.2994 28.2017C13.4075 28.73 14.2435 29.6938 14.5926 30.8456C15.5205 33.9064 19.4486 34.9532 21.6859 32.7359L21.8132 32.6097" stroke="#3054F3" stroke-width="3" stroke-miterlimit="10" stroke-linecap="round"/>
<path d="M24.5345 16.5825L24.4686 16.332C24.0654 14.7975 22.7297 13.6142 21.2115 13.4463C20.2683 13.342 19.3712 13.6461 18.7398 14.2841L16.95 16.0928C15.411 17.6479 13.3005 18.5041 11.0162 18.5L9.5 18.4973" stroke="#3054F3" stroke-width="3" stroke-miterlimit="10" stroke-linecap="round"/>
<path d="M16.7842 23.9897L17.2624 23.8258C20.1244 22.8447 23.1305 23.6979 24.911 25.9967L25.4911 26.7457C26.0681 27.4907 26.8738 28.002 27.79 28.2046L28.2041 28.2962C28.6852 28.4026 29.1951 28.3717 29.6825 28.2066C31.1658 27.7043 32.1057 26.0977 31.8171 24.5578L31.7107 23.9897" stroke="#3054F3" stroke-width="3" stroke-miterlimit="10" stroke-linecap="round"/>
<path d="M29.8135 18.4957L30.2366 18.266C32.7692 16.8908 35.5288 17.2902 37.2581 19.2821L37.8215 19.9311C38.3819 20.5766 39.1365 20.9603 39.9745 21.0258L40.3533 21.0554C40.7933 21.0898 41.2521 20.9857 41.6836 20.7534C42.9964 20.0467 43.7602 18.338 43.4183 16.8725L43.2921 16.3319" stroke="#3054F3" stroke-width="3" stroke-miterlimit="10" stroke-linecap="round"/>
</svg>
