<svg width="131" height="100" viewBox="0 0 131 100" fill="none" xmlns="http://www.w3.org/2000/svg">
<g id="Ebene 1">
<path id="&#38;lt;Path&#38;gt;" d="M8.0266 40.7487C7.48242 40.7487 7.07428 40.3406 7.07428 39.8304C7.07428 39.3201 7.48242 38.912 8.0266 38.912H24.6241C25.1343 38.912 25.5424 39.3201 25.5424 39.8304C25.5424 40.3406 25.1343 40.7487 24.6241 40.7487H8.0266Z" fill="#3054F3"/>
<path id="&#38;lt;Path&#38;gt;_2" d="M2.85689 45.5102C2.31271 45.5102 1.90457 45.1021 1.90457 44.5919C1.90457 44.0816 2.31271 43.6395 2.85689 43.6395H29.4537V39.6599L27.5491 38.0612C27.4811 37.9694 27.4232 37.881 27.379 37.7891C27.311 37.6531 27.2872 37.5068 27.311 37.347V31.5986C27.277 31.3265 27.379 31.0884 27.5831 30.8844V30.8503L30.5761 28.8435V23.3333C30.372 23.2993 30.1339 23.2313 29.9639 23.0612C29.7598 22.8231 29.6578 22.551 29.6918 22.2789V16.8708C29.6578 16.5986 29.7598 16.3265 29.9639 16.1565C30.1339 15.9524 30.372 15.8844 30.6101 15.8503H32.6168L36.0519 0.7483V0.680272C36.0757 0.612245 36.1097 0.544218 36.1539 0.476191C36.1777 0.408163 36.222 0.340136 36.29 0.272109C36.46 0.102041 36.6981 0 36.9362 0C37.3783 0 37.7185 0.272109 37.8545 0.680272V0.7483L41.2896 15.8503H43.2963C43.5344 15.8844 43.7725 15.9524 43.9425 16.1565C44.1466 16.3265 44.2486 16.5986 44.2146 16.8708V22.2789C44.2486 22.551 44.1466 22.8231 43.9425 23.0612C43.7725 23.2313 43.5344 23.2993 43.3303 23.3333V28.8435L45.337 30.2041L45.371 30.2381L46.2213 30.7823L46.3233 30.8503C46.6634 31.1565 46.7315 31.7007 46.4594 32.0748C46.1873 32.517 45.6091 32.6191 45.1669 32.3469L44.6908 32.0068L41.9699 30.2041C41.8338 30.1361 41.7216 30.034 41.6298 29.898C41.5277 29.7279 41.4597 29.5578 41.4597 29.3878V22.381C41.4597 22.1429 41.5617 21.9048 41.7318 21.7347C41.9018 21.5646 42.1059 21.4626 42.344 21.4626V17.7211H40.6434C40.3713 17.7551 40.0993 17.6531 39.9292 17.449C39.817 17.3367 39.7353 17.2109 39.6911 17.0748L39.6571 17.0068L36.9362 4.82993L34.2493 17.0068L34.2153 17.0748C34.1711 17.2109 34.0895 17.3367 33.9772 17.449C33.8072 17.6531 33.5351 17.7551 33.263 17.7211H31.5624V21.4626C31.8005 21.4626 32.0046 21.5646 32.1746 21.7347C32.3447 21.9048 32.4467 22.1429 32.4467 22.381V29.3878C32.4467 29.5578 32.3787 29.7279 32.2767 29.898C32.1848 30.034 32.0726 30.1361 31.9365 30.2041L29.1816 32.0408V37.0408L31.0522 38.6055C31.2223 38.7755 31.3243 39.0136 31.3243 39.2517V44.5919C31.3243 45.1361 30.9162 45.5102 30.406 45.5102H2.85689Z" fill="#99EE63"/>
<path id="&#38;lt;Path&#38;gt;_3" d="M122.237 40.7487C122.747 40.7487 123.155 40.3406 123.155 39.8304C123.155 39.3201 122.747 38.912 122.237 38.912H105.605C105.095 38.912 104.687 39.3201 104.687 39.8304C104.687 40.3406 105.095 40.7487 105.605 40.7487H122.237Z" fill="#99EE63"/>
<path id="&#38;lt;Path&#38;gt;_4" d="M127.406 45.5102C127.916 45.5102 128.325 45.1021 128.325 44.5919C128.325 44.0816 127.916 43.6395 127.406 43.6395H100.775V39.6599L102.68 38.0612C102.748 37.9694 102.806 37.881 102.85 37.7891C102.918 37.6531 102.942 37.5068 102.918 37.3469V31.5986C102.952 31.3265 102.85 31.0884 102.646 30.8844L102.612 30.8503L99.6531 28.8435V23.3333C99.8571 23.2993 100.095 23.2313 100.265 23.0612C100.469 22.8231 100.571 22.551 100.537 22.2789V16.8708C100.571 16.5986 100.469 16.3265 100.265 16.1565C100.095 15.9524 99.8571 15.8844 99.6191 15.8503H97.6464L94.1773 0.7483V0.680272C94.1535 0.612245 94.1194 0.544218 94.0752 0.476191C94.0514 0.408163 94.0072 0.340136 93.9392 0.272109C93.7691 0.102041 93.531 0 93.293 0C92.8508 0 92.5107 0.272109 92.3747 0.680272V0.7483L88.9395 15.8503H86.9329C86.6948 15.8844 86.4567 15.9524 86.2866 16.1565C86.0826 16.3265 86.0145 16.5986 86.0145 16.8708V22.2789C85.9805 22.551 86.0826 22.8231 86.2866 23.0612C86.4567 23.2313 86.6948 23.2993 86.8988 23.3333V28.8435L84.8922 30.2041L84.8582 30.2381L84.0079 30.7823L83.9399 30.8503C83.5657 31.1565 83.4977 31.7007 83.7698 32.0748C84.0419 32.517 84.6201 32.6191 85.0622 32.3469L85.5384 32.0068L88.2593 30.2041C88.3953 30.1361 88.5076 30.034 88.5994 29.898C88.7014 29.7279 88.7695 29.5578 88.7695 29.3878V22.381C88.7695 22.1429 88.6674 21.9048 88.4974 21.7347C88.3273 21.5646 88.1232 21.4626 87.8852 21.4626V17.7211H89.5857C89.8578 17.7551 90.1299 17.6531 90.334 17.449C90.4462 17.3367 90.5142 17.2109 90.5381 17.0748L90.5721 17.0068L93.293 4.82993L95.9799 17.0068L96.0139 17.0748C96.0581 17.2109 96.1397 17.3367 96.2519 17.449C96.456 17.6531 96.6941 17.7551 96.9662 17.7211H98.6668V21.4626C98.4627 21.4626 98.2246 21.5646 98.0545 21.7347C97.8845 21.9048 97.7825 22.1429 97.7825 22.381V29.3878C97.7825 29.5578 97.8505 29.7279 97.9525 29.898C98.0443 30.034 98.1566 30.1361 98.2926 30.2041L101.048 32.0408V37.0408L99.1769 38.6055C99.0069 38.7755 98.9048 39.0136 98.9048 39.2517V44.5919C98.9048 45.1361 99.313 45.5102 99.8231 45.5102H127.406Z" fill="#3054F3"/>
<path id="&#38;lt;Path&#38;gt;_5" d="M47.9558 70.8167V69.8984L46.9695 68.98C46.9695 68.98 46.6294 68.6739 46.6974 68.1637C47.2076 65.9868 49.1802 63.8099 52.4453 63.4358H52.6154C53.1596 63.4358 53.5677 63.844 53.5677 64.3542C53.5677 64.8644 53.1596 65.2725 52.6834 65.3065C51.2209 65.5106 49.5544 66.1229 48.7041 68.0276L49.5204 68.844C49.7244 69.014 49.8265 69.2521 49.8265 69.5242V71.7351C49.8265 72.2453 49.3843 72.6875 48.8741 72.6875H26.8348C26.3247 72.6875 25.8825 72.2453 25.8825 71.7351V69.6263C25.8825 69.3542 25.9845 69.1161 26.1886 68.946L26.8008 68.3337C25.8825 66.1229 21.9712 65.3406 19.5904 65.3065H14.3867C13.8765 65.3065 13.4344 64.8984 13.4344 64.3542C13.4344 63.844 13.8765 63.4358 14.3867 63.4358H19.6925C26.0866 63.6739 28.4334 66.395 28.7735 68.4358C28.8415 68.946 28.5014 69.2521 28.5014 69.2521L27.7531 70.0004V70.8167H47.9558Z" fill="#99EE63"/>
<path id="&#38;lt;Path&#38;gt;_6" d="M82.3753 70.8167V69.8984L83.3617 68.98C83.3617 68.98 83.6678 68.6739 83.5998 68.1637C83.1236 65.9868 81.1509 63.8099 77.8859 63.4358H77.6818C77.1716 63.4358 76.7635 63.844 76.7635 64.3542C76.7635 64.8644 77.1376 65.2725 77.6478 65.3065C79.0763 65.5106 80.7768 66.1229 81.6271 68.0276L80.7768 68.844C80.6068 69.014 80.5047 69.2521 80.5047 69.5242V71.7351C80.5047 72.2453 80.9129 72.6875 81.423 72.6875H103.496C104.007 72.6875 104.415 72.2453 104.415 71.7351V69.6263C104.415 69.3542 104.313 69.1161 104.143 68.946L103.53 68.3337C104.449 66.1229 108.326 65.3406 110.707 65.3065H115.944C116.455 65.3065 116.863 64.8984 116.863 64.3542C116.863 63.844 116.455 63.4358 115.944 63.4358H110.605C104.211 63.6739 101.898 66.395 101.558 68.4358C101.49 68.946 101.796 69.2521 101.796 69.2521L102.544 70.0004V70.8167H82.3753Z" fill="#3054F3"/>
<path id="&#38;lt;Path&#38;gt;_7" d="M53.1257 80.2385C52.9896 80.3065 52.8434 80.3406 52.6835 80.3406C52.5475 80.3406 52.4114 80.3167 52.2754 80.2725L46.4595 77.4834L40.2354 80.4426L33.6712 77.3474C33.3311 77.2113 33.059 76.8712 33.059 76.463C33.059 75.9528 33.4672 75.5106 34.0113 75.5106C34.1712 75.5106 34.3174 75.5548 34.4535 75.6467L40.2354 78.4698L46.0853 75.5786C46.1772 75.5548 46.2792 75.5344 46.3914 75.5106H46.4255C46.6057 75.5106 46.7656 75.5548 46.9016 75.6467L52.6835 78.4698L58.4314 75.6467C58.4552 75.6229 58.4893 75.6025 58.5335 75.5786C58.6015 75.5548 58.6695 75.5446 58.7375 75.5446C58.7818 75.5208 58.8396 75.5106 58.9076 75.5106C59.0879 75.5106 59.2477 75.5548 59.3838 75.6467L65.0976 78.4698L70.9136 75.6127H70.9476C71.0496 75.5446 71.1176 75.5446 71.1857 75.5446L71.2197 75.5106H71.4237C71.5156 75.5344 71.604 75.5548 71.6958 75.5786L71.7639 75.6127L77.5458 78.4698L83.3277 75.6467C83.4637 75.5548 83.61 75.5106 83.7698 75.5106C83.9059 75.5106 84.0317 75.5344 84.144 75.5786L89.9939 78.4698L95.7758 75.6467C95.9119 75.5548 96.0581 75.5106 96.218 75.5106C96.7621 75.5106 97.1703 75.9528 97.1703 76.463C97.1703 76.8712 96.8982 77.2113 96.5581 77.3474L89.9939 80.4426L83.8039 77.4834L77.9539 80.2725C77.8417 80.3167 77.7056 80.3406 77.5458 80.3406C77.4097 80.3406 77.2839 80.3167 77.1717 80.2725L71.3217 77.4834L65.5738 80.2385C65.4378 80.3065 65.2779 80.3406 65.0976 80.3406C64.9378 80.3406 64.7915 80.3065 64.6555 80.2385L58.8736 77.4834L53.1257 80.2385Z" fill="#3054F3"/>
<path id="&#38;lt;Path&#38;gt;_8" d="M53.1256 86.8363C52.9896 86.9043 52.8433 86.9383 52.6835 86.9383C52.5236 86.9383 52.3876 86.9043 52.2754 86.8363L46.3914 84.0472L42.4801 85.9519C42.3679 85.9962 42.2522 86.02 42.14 86.02C41.5958 86.02 41.1877 85.6118 41.1877 85.1016C41.1877 84.6594 41.4598 84.3193 41.8339 84.2172L46.0173 82.2104C46.1533 82.1424 46.2996 82.1084 46.4594 82.1084C46.6193 82.1084 46.7655 82.1424 46.9016 82.2104L52.6835 85.0676C58.4314 82.2445 58.4314 82.2104 58.4314 82.2104C58.4552 82.2104 58.4892 82.2002 58.5334 82.1764C58.6015 82.1526 58.6695 82.1322 58.7375 82.1084H58.9076C59.0878 82.1084 59.2477 82.1526 59.3837 82.2445L65.1316 85.0676L70.9135 82.2104L70.9475 82.1764C71.0496 82.1424 71.1176 82.1084 71.1856 82.1084H71.4237C71.5155 82.1084 71.604 82.1322 71.6958 82.1764L71.7638 82.2104L77.5797 85.0676L83.3276 82.2104C83.4637 82.1424 83.6099 82.1084 83.7698 82.1084C83.9501 82.1084 84.1201 82.1526 84.28 82.2445L88.3953 84.2172C88.7694 84.3193 89.0415 84.6594 89.0415 85.1016C89.0415 85.6118 88.6334 86.02 88.0892 86.02C87.977 86.02 87.8613 85.9962 87.7491 85.9519L83.8378 84.0472L77.9539 86.8363C77.8416 86.9043 77.7158 86.9383 77.5797 86.9383C77.4199 86.9383 77.2838 86.9043 77.1716 86.8363L71.3557 84.0472L65.5738 86.8363C65.4377 86.9043 65.2915 86.9383 65.1316 86.9383C64.9718 86.9383 64.8357 86.9043 64.7235 86.8363L58.9076 84.0812L53.1256 86.8363Z" fill="#99EE63"/>
<path id="&#38;lt;Path&#38;gt;_9" d="M70.9816 95.2378C71.0938 95.1936 71.2197 95.1698 71.3557 95.1698C71.8659 95.1698 72.274 95.578 72.274 96.0882C72.274 96.5303 72.0019 96.8705 71.6278 97.0065L65.5058 99.8977C65.3935 99.9657 65.2677 99.9997 65.1316 99.9997C64.9718 99.9997 64.8357 99.9657 64.7235 99.8977L58.5675 96.9725C58.2274 96.8365 57.9553 96.4963 57.9553 96.0882C57.9553 95.578 58.3634 95.1698 58.9076 95.1698C59.0674 95.1698 59.2137 95.2038 59.3497 95.2718L65.1316 98.129L70.9816 95.2378Z" fill="#99EE63"/>
<path id="&#38;lt;Path&#38;gt;_10" d="M53.1257 93.3669C52.9897 93.435 52.8434 93.469 52.6836 93.469C52.5237 93.469 52.3877 93.435 52.2754 93.3669L46.1194 90.4418C45.7793 90.3057 45.5072 89.9656 45.5072 89.5574C45.5072 89.0472 45.9493 88.639 46.4595 88.639C46.6193 88.639 46.7656 88.673 46.9016 88.7411L52.6836 91.5982L58.4315 88.7751C58.4553 88.7513 58.4893 88.7309 58.5335 88.7071C58.6015 88.6832 58.6695 88.6628 58.7376 88.639H58.9076C59.0879 88.639 59.2477 88.6833 59.3838 88.7751L65.0977 91.5982L70.9136 88.7411L70.9476 88.7071C71.0156 88.6832 71.0837 88.6628 71.1517 88.639C71.1075 88.6628 71.0735 88.6731 71.0496 88.6731L70.9816 88.7071C71.0054 88.6832 71.0258 88.6731 71.0496 88.6731C71.0939 88.6492 71.1415 88.639 71.1857 88.639H71.4238C71.5156 88.639 71.604 88.6628 71.6959 88.7071L71.7639 88.7411L77.5458 91.5982L83.3277 88.7411C83.4638 88.673 83.61 88.639 83.7699 88.639C84.3141 88.639 84.7222 89.0472 84.7222 89.5574C84.7222 89.9656 84.4501 90.3057 84.11 90.4418L77.9539 93.3669C77.8417 93.435 77.7057 93.469 77.5458 93.469C77.4098 93.469 77.2737 93.435 77.1377 93.3669L71.3217 90.6118L65.5738 93.3329C65.4378 93.4247 65.2915 93.469 65.1317 93.469C64.9718 93.469 64.8358 93.435 64.7236 93.3669L58.8736 90.6118L53.1257 93.3669Z" fill="#3054F3"/>
<path id="&#38;lt;Path&#38;gt;_11" d="M3.40113 51.1567H0.102034C0.0340113 51.1567 0 51.1907 0 51.2587V57.7213C0 57.7893 0.0340113 57.8233 0.102034 57.8233H1.02034C1.08836 57.8233 1.15638 57.7893 1.15638 57.7213V55.1363C1.15638 55.1023 1.19039 55.1023 1.19039 55.1023H3.40113C3.46915 55.1023 3.50316 55.0342 3.50316 54.9662V54.0818C3.50316 54.0138 3.46915 53.9798 3.40113 53.9798H1.19039C1.15638 53.9798 1.15638 53.9458 1.15638 53.9118V52.3131C1.15638 52.2791 1.19039 52.2451 1.19039 52.2451H3.40113C3.46915 52.2451 3.50316 52.2111 3.50316 52.1431V51.2587C3.50316 51.1907 3.46915 51.1567 3.40113 51.1567Z" fill="#070D24"/>
<path id="&#38;lt;Compound Path&#38;gt;" fill-rule="evenodd" clip-rule="evenodd" d="M5.84997 57.8233H4.93167C4.86365 57.8233 4.79562 57.7893 4.79562 57.7213V51.2587C4.79562 51.1907 4.86365 51.1567 4.93167 51.1567H6.97235C8.40082 51.1567 9.52319 52.007 9.52319 53.5036C9.52319 54.558 8.97901 55.3063 8.12873 55.6465C8.06071 55.6703 8.0505 55.7043 8.09472 55.7485L9.52319 57.6873C9.5572 57.7553 9.5572 57.8233 9.45517 57.8233H8.29878C8.19675 57.8233 8.12873 57.8233 8.06071 57.6873L6.8363 55.9866C6.80229 55.8846 6.73427 55.8846 6.66624 55.8846H6.02003C5.98602 55.8846 5.95201 55.8846 5.95201 55.9526V57.7213C5.95201 57.7893 5.918 57.8233 5.84997 57.8233ZM5.95201 52.3131V54.7281C5.95201 54.7281 5.98602 54.7621 6.02003 54.7621H6.90432C7.68658 54.7621 8.29878 54.354 8.29878 53.5036C8.29878 52.6533 7.68658 52.2451 6.90432 52.2451H6.02003C5.97582 52.2451 5.95201 52.2689 5.95201 52.3131Z" fill="#070D24"/>
<path id="&#38;lt;Path&#38;gt;_12" d="M11.836 51.1567H10.8836C10.8156 51.1567 10.7816 51.1907 10.7816 51.2587V57.7213C10.7816 57.7893 10.8156 57.8233 10.8836 57.8233H11.836C11.904 57.8233 11.938 57.7893 11.938 57.7213V51.2587C11.938 51.1907 11.904 51.1567 11.836 51.1567Z" fill="#070D24"/>
<path id="&#38;lt;Path&#38;gt;_13" d="M13.5706 51.2587V57.7213C13.5706 57.7893 13.6386 57.8233 13.7066 57.8233H17.1758C17.2438 57.8233 17.2778 57.7893 17.2778 57.7213V56.837C17.2778 56.7689 17.2438 56.7349 17.1758 56.7349H14.795C14.761 56.7349 14.761 56.7009 14.761 56.6669V55.0682C14.761 55.0342 14.795 55.0002 14.795 55.0002H17.1758C17.2438 55.0002 17.2778 54.9662 17.2778 54.8982V54.0138C17.2778 53.9458 17.2438 53.9118 17.1758 53.9118H14.795C14.7712 53.9118 14.761 53.888 14.761 53.8438V52.3131C14.761 52.2791 14.795 52.2451 14.795 52.2451H17.1758C17.2438 52.2451 17.2778 52.2111 17.2778 52.1431V51.2587C17.2778 51.1907 17.2438 51.1567 17.1758 51.1567H13.7066C13.6386 51.1567 13.5706 51.1907 13.5706 51.2587Z" fill="#070D24"/>
<path id="&#38;lt;Compound Path&#38;gt;_2" fill-rule="evenodd" clip-rule="evenodd" d="M24.08 54.49C24.08 56.4968 22.7195 57.8233 20.8489 57.8233H18.8082C18.7402 57.8233 18.7062 57.7893 18.7062 57.7213V51.2587C18.7062 51.1907 18.7402 51.1567 18.8082 51.1567H20.8489C22.7195 51.1567 24.08 52.4492 24.08 54.49ZM19.9306 56.7349H20.7128C21.8012 56.7349 22.8215 56.1567 22.8215 54.49C22.8215 52.8233 21.8012 52.2451 20.7128 52.2451H19.9306C19.8966 52.2451 19.8626 52.2791 19.8626 52.3131V56.6669C19.8626 56.7111 19.8864 56.7349 19.9306 56.7349Z" fill="#070D24"/>
<path id="&#38;lt;Compound Path&#38;gt;_3" fill-rule="evenodd" clip-rule="evenodd" d="M26.3588 57.8233H25.4405C25.3725 57.8233 25.3045 57.7893 25.3045 57.7213V51.2587C25.3045 51.1907 25.3725 51.1567 25.4405 51.1567H27.4812C28.9097 51.1567 30.032 52.007 30.032 53.5036C30.032 54.558 29.4879 55.3063 28.6376 55.6465C28.5696 55.6703 28.5594 55.7043 28.6036 55.7485L30.032 57.6873C30.0661 57.7553 30.0661 57.8233 29.964 57.8233H28.8076C28.7056 57.8233 28.6376 57.8233 28.5696 57.6873L27.3452 55.9866C27.3111 55.8846 27.2431 55.8846 27.1751 55.8846H26.5289C26.4949 55.8846 26.4609 55.8846 26.4609 55.9526V57.7213C26.4609 57.7893 26.4268 57.8233 26.3588 57.8233ZM26.4609 52.3131V54.7281C26.4609 54.7281 26.4949 54.7621 26.5289 54.7621H27.4132C28.1954 54.7621 28.8076 54.354 28.8076 53.5036C28.8076 52.6533 28.1954 52.2451 27.4132 52.2451H26.5289C26.4847 52.2451 26.4609 52.2689 26.4609 52.3131Z" fill="#070D24"/>
<path id="&#38;lt;Path&#38;gt;_14" d="M32.3447 51.1567H31.3924C31.3244 51.1567 31.2903 51.1907 31.2903 51.2587V57.7213C31.2903 57.7893 31.3244 57.8233 31.3924 57.8233H32.3447C32.4127 57.8233 32.4467 57.7893 32.4467 57.7213V51.2587C32.4467 51.1907 32.4127 51.1567 32.3447 51.1567Z" fill="#070D24"/>
<path id="&#38;lt;Path&#38;gt;_15" d="M37.1063 57.9931C38.3987 57.9931 39.4871 57.3808 40.0313 56.3944C40.0551 56.3264 40.0415 56.2822 39.9973 56.2584L39.181 55.7142C39.147 55.6461 39.079 55.6802 39.0449 55.7482C38.6368 56.4625 37.9566 56.8366 37.1063 56.8366C35.7799 56.8366 34.9296 55.8842 34.9296 54.4897C34.9296 53.0951 35.7799 52.1427 37.1063 52.1427C37.9566 52.1427 38.6368 52.5169 39.0449 53.2312C39.079 53.2992 39.147 53.2992 39.181 53.2652L39.9973 52.721C40.0415 52.6972 40.0551 52.653 40.0313 52.5849C39.4871 51.5645 38.3987 50.9523 37.1063 50.9523C35.1677 50.9523 33.7052 52.3808 33.7052 54.4897C33.7052 56.5985 35.1677 57.9931 37.1063 57.9931Z" fill="#070D24"/>
<path id="&#38;lt;Path&#38;gt;_16" d="M42.276 53.8778V51.2587C42.276 51.1907 42.242 51.1567 42.1739 51.1567H41.2556C41.1876 51.1567 41.1196 51.1907 41.1196 51.2587V57.7213C41.1196 57.7893 41.1876 57.8233 41.2556 57.8233H42.1739C42.242 57.8233 42.276 57.7893 42.276 57.7213V55.0682C42.276 55.0444 42.2998 55.0342 42.344 55.0342H44.6908C44.7135 55.0342 44.7248 55.0456 44.7248 55.0682V57.7213C44.7248 57.7893 44.7928 57.8233 44.8608 57.8233H45.7791C45.8472 57.8233 45.9152 57.7893 45.9152 57.7213V51.2587C45.9152 51.1907 45.8472 51.1567 45.7791 51.1567H44.8608C44.7928 51.1567 44.7248 51.1907 44.7248 51.2587V53.8778C44.7248 53.9016 44.7146 53.9118 44.6908 53.9118H42.344C42.2998 53.9118 42.276 53.9016 42.276 53.8778Z" fill="#070D24"/>
<path id="&#38;lt;Path&#38;gt;_17" d="M49.3503 57.9935C50.7788 57.9935 51.6291 57.0411 51.6291 55.8847C51.6291 54.6602 50.7108 54.0139 49.7585 53.8438L49.2483 53.7418C48.7381 53.6398 48.4661 53.3336 48.4661 52.9255C48.4661 52.4493 48.8062 52.0751 49.3844 52.0751C49.8605 52.0751 50.2006 52.3472 50.4047 52.7554C50.4285 52.8234 50.4727 52.8472 50.5407 52.8234L51.425 52.4833C51.4931 52.4391 51.5169 52.3813 51.4931 52.3132C51.1529 51.5309 50.4047 50.9867 49.4184 50.9867C48.0919 50.9867 47.2416 51.9051 47.2416 52.9595C47.2416 54.0139 47.9559 54.7622 49.0102 54.9323L49.4864 55.0343C50.0646 55.1364 50.4047 55.4425 50.4047 55.9867C50.4047 56.4969 50.0306 56.837 49.3503 56.837C48.8062 56.837 48.364 56.5989 48.194 56.0547C48.194 55.9867 48.1259 55.9527 48.0579 55.9867L47.1736 56.3608C47.1056 56.3847 47.0818 56.4289 47.1056 56.4969C47.4457 57.4493 48.296 57.9935 49.3503 57.9935Z" fill="#070D24"/>
<path id="&#38;lt;Path&#38;gt;_18" d="M54.0439 53.8778V51.2587C54.0439 51.1907 54.0099 51.1567 53.9419 51.1567H52.9895C52.9215 51.1567 52.8875 51.1907 52.8875 51.2587V57.7213C52.8875 57.7893 52.9215 57.8233 52.9895 57.8233H53.9419C54.0099 57.8233 54.0439 57.7893 54.0439 57.7213V55.0682C54.0439 55.0444 54.0677 55.0342 54.1119 55.0342H56.4247C56.47 55.0342 56.4927 55.0456 56.4927 55.0682V57.7213C56.4927 57.7893 56.5607 57.8233 56.6288 57.8233H57.5471C57.6151 57.8233 57.6491 57.7893 57.6491 57.7213V51.2587C57.6491 51.1907 57.6151 51.1567 57.5471 51.1567H56.6288C56.5607 51.1567 56.4927 51.1907 56.4927 51.2587V53.8778C56.4927 53.9016 56.4689 53.9118 56.4247 53.9118H54.1119C54.0677 53.9118 54.0439 53.9016 54.0439 53.8778Z" fill="#070D24"/>
<path id="&#38;lt;Compound Path&#38;gt;_4" fill-rule="evenodd" clip-rule="evenodd" d="M62.5807 51.2927L64.4173 57.7213C64.4173 57.7893 64.3833 57.8233 64.3153 57.8233H63.329C63.2609 57.8233 63.2167 57.7995 63.1929 57.7553L62.8528 56.5648C62.8528 56.4968 62.8188 56.4628 62.7508 56.4628H60.336C60.302 56.4628 60.2679 56.4968 60.2339 56.5648L59.8938 57.7553C59.8938 57.7995 59.8598 57.8233 59.7918 57.8233H58.8055C58.7136 57.8233 58.6796 57.7893 58.7034 57.7213L60.54 51.2927C60.574 51.1567 60.6421 51.1567 60.7101 51.1567H62.3766C62.4787 51.1567 62.5467 51.1567 62.5807 51.2927ZM60.6421 55.3744H62.4447C62.4889 55.3744 62.5127 55.3506 62.5127 55.3063L61.6624 52.3131C61.6386 52.2689 61.6182 52.2451 61.5944 52.2451H61.4924C61.4685 52.2451 61.4583 52.2689 61.4583 52.3131L60.6081 55.3063C60.5842 55.3506 60.5979 55.3744 60.6421 55.3744Z" fill="#070D24"/>
<path id="&#38;lt;Path&#38;gt;_19" d="M66.492 51.1567H65.5737C65.5057 51.1567 65.4377 51.1907 65.4377 51.2587V57.7213C65.4377 57.7893 65.5057 57.8233 65.5737 57.8233H66.492C66.5601 57.8233 66.6281 57.7893 66.6281 57.7213V51.2587C66.6281 51.1907 66.5601 51.1567 66.492 51.1567Z" fill="#070D24"/>
<path id="&#38;lt;Path&#38;gt;_20" d="M72.104 55.6805L69.6211 51.2587C69.5531 51.1567 69.5191 51.1567 69.4171 51.1567H68.3627C68.2947 51.1567 68.2607 51.1907 68.2607 51.2587V57.7213C68.2607 57.7893 68.2947 57.8233 68.3627 57.8233H69.315C69.3831 57.8233 69.4171 57.7893 69.4171 57.7213V53.3336C69.4171 53.2655 69.4511 53.2315 69.4851 53.2995L71.9679 57.6873C72.0359 57.7893 72.104 57.8233 72.206 57.8233H73.2263C73.2944 57.8233 73.3284 57.7893 73.3284 57.7213V51.2587C73.3284 51.1907 73.2944 51.1567 73.2263 51.1567H72.308C72.24 51.1567 72.172 51.1907 72.172 51.2587V55.6465C72.172 55.7145 72.138 55.7145 72.104 55.6805Z" fill="#070D24"/>
<path id="&#38;lt;Path&#38;gt;_21" d="M77.1715 55.4757V54.7274C77.1715 54.6594 77.1375 54.5914 77.0695 54.5914H74.8588C74.7907 54.5914 74.7227 54.6594 74.7227 54.7274V55.4757C74.7227 55.5438 74.7907 55.5778 74.8588 55.5778H77.0695C77.1375 55.5778 77.1715 55.5438 77.1715 55.4757Z" fill="#070D24"/>
<path id="&#38;lt;Path&#38;gt;_22" d="M79.7564 57.7211V56.0544C79.7564 55.9524 79.7564 55.9184 79.7904 55.8843L80.3006 55.068C80.3346 55.034 80.3686 55.034 80.4026 55.068L81.6611 57.7211C81.6849 57.7891 81.7291 57.8231 81.7971 57.8231H82.8515C82.9535 57.8231 82.9875 57.7891 82.9535 57.6871L81.2189 54.1156C81.1509 54.0476 81.1509 54.0136 81.2189 53.9115L82.8855 51.2925C82.9535 51.1905 82.9195 51.1564 82.8175 51.1564H81.6951C81.6509 51.1326 81.6032 51.1564 81.559 51.2245L79.8245 54.0476C79.7904 54.0816 79.7564 54.0816 79.7564 54.0136V51.2585C79.7564 51.1905 79.6884 51.1564 79.6204 51.1564H78.7021C78.6341 51.1564 78.566 51.1905 78.566 51.2585V57.7211C78.566 57.7891 78.6341 57.8231 78.7021 57.8231H79.6204C79.6884 57.8231 79.7564 57.7891 79.7564 57.7211Z" fill="#070D24"/>
<path id="&#38;lt;Compound Path&#38;gt;_5" fill-rule="evenodd" clip-rule="evenodd" d="M85.0963 57.8233H84.178C84.11 57.8233 84.0419 57.7893 84.0419 57.7213V51.2587C84.0419 51.1907 84.11 51.1567 84.178 51.1567H86.2187C87.6471 51.1567 88.7695 52.007 88.7695 53.5036C88.7695 54.558 88.2253 55.3063 87.375 55.6465C87.307 55.6465 87.307 55.7145 87.341 55.7485L88.7695 57.6873C88.8375 57.7553 88.8035 57.8233 88.7015 57.8233H87.5451C87.4431 57.8233 87.409 57.8233 87.341 57.6873L86.0826 55.9866C86.0486 55.8846 86.0146 55.8846 85.9126 55.8846H85.2663C85.2437 55.8846 85.2323 55.9072 85.2323 55.9526V57.7213C85.2323 57.7893 85.1643 57.8233 85.0963 57.8233ZM85.2323 52.3131V54.7281C85.2323 54.7281 85.2323 54.7621 85.2663 54.7621H86.1506C86.9329 54.7621 87.5451 54.354 87.5451 53.5036C87.5451 52.6533 86.9329 52.2451 86.1506 52.2451H85.2663C85.2425 52.2451 85.2323 52.2689 85.2323 52.3131Z" fill="#070D24"/>
<path id="&#38;lt;Path&#38;gt;_23" d="M90.0279 51.2587V57.7213C90.0279 57.7893 90.0959 57.8233 90.1639 57.8233H93.5991C93.6671 57.8233 93.7351 57.7893 93.7351 57.7213V56.837C93.7351 56.7689 93.6671 56.7349 93.5991 56.7349H91.2523C91.2183 56.7349 91.1843 56.7009 91.1843 56.6669V55.0682C91.1843 55.0342 91.2183 55.0002 91.2523 55.0002H93.5991C93.6671 55.0002 93.7351 54.9662 93.7351 54.8982V54.0138C93.7351 53.9458 93.6671 53.9118 93.5991 53.9118H91.2523C91.2081 53.9118 91.1843 53.888 91.1843 53.8438V52.3131C91.1843 52.2791 91.2183 52.2451 91.2523 52.2451H93.5991C93.6671 52.2451 93.7351 52.2111 93.7351 52.1431V51.2587C93.7351 51.1907 93.6671 51.1567 93.5991 51.1567H90.1639C90.0959 51.1567 90.0279 51.1907 90.0279 51.2587Z" fill="#070D24"/>
<path id="&#38;lt;Path&#38;gt;_24" d="M97.4764 57.9934C98.9389 57.9934 99.8912 57.041 99.8912 55.4764V51.2587C99.8912 51.1907 99.8231 51.1567 99.7551 51.1567H98.8368C98.7688 51.1567 98.7348 51.1907 98.7348 51.2587V55.4084C98.7348 56.3608 98.2586 56.871 97.4764 56.871C96.6941 56.871 96.252 56.3608 96.252 55.4084V51.2587C96.252 51.1907 96.218 51.1567 96.1499 51.1567H95.1976C95.1296 51.1567 95.0956 51.1907 95.0956 51.2587V55.4764C95.0956 57.041 96.0139 57.9934 97.4764 57.9934Z" fill="#070D24"/>
<path id="&#38;lt;Path&#38;gt;_25" d="M101.15 57.8233H105.843C105.911 57.8233 105.945 57.7893 105.945 57.7213V56.837C105.945 56.7689 105.911 56.7349 105.843 56.7349H102.952C102.884 56.7349 102.874 56.6907 102.918 56.5989L105.741 51.3948C105.809 51.2587 105.741 51.1567 105.605 51.1567H101.082C101.014 51.1567 100.979 51.1907 100.979 51.2587V52.1431C100.979 52.2111 101.014 52.2451 101.082 52.2451H103.802C103.87 52.2451 103.904 52.2791 103.87 52.3472L101.014 57.5853C100.945 57.6873 101.048 57.8233 101.15 57.8233Z" fill="#070D24"/>
<path id="&#38;lt;Compound Path&#38;gt;_6" fill-rule="evenodd" clip-rule="evenodd" d="M107 57.7213V51.2587C107 51.1907 107.068 51.1567 107.136 51.1567H109.312C110.605 51.1567 111.319 51.939 111.319 52.9594C111.319 53.5716 111.013 54.0478 110.571 54.3199C110.503 54.354 110.537 54.422 110.605 54.456C111.115 54.7281 111.421 55.2383 111.421 55.9526C111.421 57.007 110.741 57.8233 109.38 57.8233H107.136C107.068 57.8233 107 57.7893 107 57.7213ZM108.19 52.3131V53.8438C108.19 53.888 108.2 53.9118 108.224 53.9118H109.142C109.754 53.9118 110.095 53.5716 110.095 53.0955C110.095 52.5853 109.754 52.2451 109.142 52.2451H108.224C108.2 52.2451 108.19 52.2689 108.19 52.3131ZM108.19 55.0682V56.6669C108.19 56.7009 108.19 56.7349 108.224 56.7349H109.244C109.857 56.7349 110.197 56.3608 110.197 55.8506C110.197 55.3404 109.857 55.0002 109.244 55.0002H108.224C108.2 55.0002 108.19 55.024 108.19 55.0682Z" fill="#070D24"/>
<path id="&#38;lt;Path&#38;gt;_26" d="M112.747 51.2587V57.7213C112.747 57.7893 112.781 57.8233 112.849 57.8233H116.318C116.386 57.8233 116.455 57.7893 116.455 57.7213V56.837C116.455 56.7689 116.386 56.7349 116.318 56.7349H113.972C113.938 56.7349 113.904 56.7009 113.904 56.6669V55.0682C113.904 55.0342 113.938 55.0002 113.972 55.0002H116.318C116.386 55.0002 116.455 54.9662 116.455 54.8982V54.0138C116.455 53.9458 116.386 53.9118 116.318 53.9118H113.972C113.927 53.9118 113.904 53.888 113.904 53.8438V52.3131C113.904 52.2791 113.938 52.2451 113.972 52.2451H116.318C116.386 52.2451 116.455 52.2111 116.455 52.1431V51.2587C116.455 51.1907 116.386 51.1567 116.318 51.1567H112.849C112.781 51.1567 112.747 51.1907 112.747 51.2587Z" fill="#070D24"/>
<path id="&#38;lt;Compound Path&#38;gt;_7" fill-rule="evenodd" clip-rule="evenodd" d="M118.903 57.8233H117.985C117.917 57.8233 117.849 57.7893 117.849 57.7213V51.2587C117.849 51.1907 117.917 51.1567 117.985 51.1567H120.026C121.454 51.1567 122.577 52.007 122.577 53.5036C122.577 54.558 122.032 55.3063 121.182 55.6465C121.114 55.6465 121.114 55.7145 121.148 55.7485L122.577 57.6873C122.645 57.7553 122.611 57.8233 122.509 57.8233H121.352C121.25 57.8233 121.216 57.8233 121.148 57.6873L119.89 55.9866C119.856 55.8846 119.822 55.8846 119.72 55.8846H119.073C119.051 55.8846 119.039 55.9072 119.039 55.9526V57.7213C119.039 57.7893 118.971 57.8233 118.903 57.8233ZM119.039 52.3131V54.7281C119.039 54.7281 119.039 54.7621 119.073 54.7621H119.958C120.74 54.7621 121.352 54.354 121.352 53.5036C121.352 52.6533 120.74 52.2451 119.958 52.2451H119.073C119.05 52.2451 119.039 52.2689 119.039 52.3131Z" fill="#070D24"/>
<path id="&#38;lt;Path&#38;gt;_27" d="M127.236 55.408H128.835C128.869 55.408 128.869 55.4421 128.869 55.4761C128.631 56.3264 127.95 56.8366 126.93 56.8366C125.57 56.8366 124.685 55.8842 124.685 54.4897C124.685 53.0951 125.57 52.1427 126.93 52.1427C127.678 52.1427 128.324 52.4149 128.733 52.9591C128.767 53.0271 128.835 53.0271 128.903 52.9931L129.651 52.4149C129.719 52.3706 129.729 52.3128 129.685 52.2448C129.073 51.4625 128.086 50.9523 126.93 50.9523C124.923 50.9523 123.427 52.3808 123.427 54.4897C123.427 56.5985 124.923 57.9931 126.93 57.9931C128.937 57.9931 130.195 56.6325 130.263 54.4217C130.263 54.3536 130.195 54.3196 130.127 54.3196H127.236C127.168 54.3196 127.134 54.3536 127.134 54.4217V55.306C127.134 55.374 127.168 55.408 127.236 55.408Z" fill="#070D24"/>
<path id="&#38;lt;Compound Path&#38;gt;_8" fill-rule="evenodd" clip-rule="evenodd" d="M37.5485 45.4426V38.98C37.5485 38.946 37.6165 38.878 37.6846 38.878H39.8613C41.1537 38.878 41.868 39.6603 41.868 40.6807C41.868 41.293 41.5619 41.7691 41.1197 42.0753C41.0517 42.1093 41.0857 42.1433 41.1537 42.1773C41.6639 42.4494 41.97 42.9936 41.97 43.6739C41.97 44.7623 41.2898 45.5787 39.9293 45.5787H37.6846C37.6165 45.5787 37.5485 45.5107 37.5485 45.4426ZM38.7389 40.0345V41.5991C38.7389 41.6229 38.7491 41.6433 38.7729 41.6671H39.6912C40.3034 41.6671 40.6435 41.327 40.6435 40.8168C40.6435 40.3066 40.3034 40.0004 39.6912 40.0004H38.7729C38.7491 40.0004 38.7389 40.0106 38.7389 40.0345ZM38.7389 42.7896V44.3882C38.7389 44.4222 38.7389 44.4562 38.7729 44.4562H39.7933C40.4055 44.4562 40.7456 44.1161 40.7456 43.6059C40.7456 43.0957 40.4055 42.7215 39.7933 42.7215H38.7729C38.7491 42.7215 38.7389 42.7453 38.7389 42.7896Z" fill="#070D24"/>
<path id="&#38;lt;Path&#38;gt;_28" d="M43.4324 38.98V45.4426C43.4324 45.5107 43.5004 45.5787 43.5685 45.5787H47.0376C47.1056 45.5787 47.1396 45.5107 47.1396 45.4426V44.5583C47.1396 44.4902 47.1056 44.4562 47.0376 44.4562H44.6568C44.6228 44.4562 44.6228 44.4222 44.6228 44.3882V42.7896C44.6228 42.7555 44.6228 42.7215 44.6568 42.7215H47.0376C47.1056 42.7215 47.1396 42.6875 47.1396 42.6195V41.7692C47.1396 41.7011 47.1056 41.6331 47.0376 41.6331H44.6568C44.633 41.6331 44.6228 41.6229 44.6228 41.5991V40.0345C44.6228 40.0118 44.6341 40.0004 44.6568 40.0004H47.0376C47.1056 40.0004 47.1396 39.9324 47.1396 39.8644V38.98C47.1396 38.946 47.1056 38.878 47.0376 38.878H43.5685C43.5004 38.878 43.4324 38.946 43.4324 38.98Z" fill="#070D24"/>
<path id="&#38;lt;Path&#38;gt;_29" d="M48.3981 45.5787H53.0917C53.1597 45.5787 53.1937 45.5106 53.1937 45.4766V44.5583C53.1937 44.4902 53.1597 44.4562 53.0917 44.4562H50.2007C50.1327 44.4562 50.1225 44.4222 50.1667 44.3542L52.9897 39.1501C53.0577 39.014 52.9897 38.878 52.8536 38.878H48.3301C48.2621 38.878 48.2281 38.946 48.2281 38.98V39.8644C48.2281 39.9324 48.2621 40.0004 48.3301 40.0004H51.051C51.119 40.0004 51.1531 40.0004 51.119 40.1025L48.2621 45.3066C48.1941 45.4426 48.2961 45.5787 48.3981 45.5787Z" fill="#070D24"/>
<path id="&#38;lt;Path&#38;gt;_30" d="M55.4725 38.878H54.5202C54.4521 38.878 54.4181 38.946 54.4181 38.98V45.4426C54.4181 45.5107 54.4521 45.5787 54.5202 45.5787H55.4725C55.5405 45.5787 55.5745 45.5107 55.5745 45.4426V38.98C55.5745 38.946 55.5405 38.878 55.4725 38.878Z" fill="#070D24"/>
<path id="&#38;lt;Compound Path&#38;gt;_9" fill-rule="evenodd" clip-rule="evenodd" d="M58.3974 45.5787H57.4791C57.4111 45.5787 57.3771 45.5107 57.3771 45.4426V38.98C57.3771 38.946 57.4111 38.878 57.4791 38.878H59.5198C60.9483 38.878 62.0706 39.7623 62.0706 41.2589C62.0706 42.3134 61.5264 43.0277 60.6762 43.3678C60.6081 43.3916 60.5979 43.4358 60.6422 43.5038L62.0706 45.4086C62.1387 45.5106 62.1046 45.5787 62.0026 45.5787H60.8802C60.7442 45.5787 60.7102 45.5447 60.6422 45.4426L59.4178 43.7079C59.3497 43.6399 59.3157 43.6059 59.2137 43.6059H58.6015C58.5675 43.6059 58.5335 43.6399 58.5335 43.6739V45.4426C58.5335 45.5107 58.4654 45.5787 58.3974 45.5787ZM58.5335 40.0345V42.4494C58.5335 42.4834 58.5335 42.5174 58.6015 42.5174H59.4518C60.234 42.5174 60.8462 42.1093 60.8462 41.2589C60.8462 40.4086 60.234 40.0004 59.4518 40.0004H58.6015C58.5573 40.0004 58.5335 40.0106 58.5335 40.0345Z" fill="#070D24"/>
<path id="&#38;lt;Path&#38;gt;_31" d="M64.6555 45.4426V43.776C64.6555 43.7079 64.6895 43.6399 64.6895 43.6059L65.2337 42.7896C65.2337 42.7555 65.3017 42.7555 65.3017 42.8236L66.5601 45.4766C66.6043 45.5447 66.6621 45.5787 66.7302 45.5787H67.7845C67.8525 45.5787 67.9206 45.5107 67.8525 45.4426L66.118 41.8712C66.0839 41.7691 66.0839 41.7351 66.118 41.6671L67.8185 39.014C67.8525 38.946 67.8185 38.878 67.7505 38.878H66.6281C66.5601 38.878 66.5159 38.9018 66.4921 38.946L64.7235 41.7692C64.6895 41.8372 64.6555 41.8032 64.6555 41.7692V38.98C64.6555 38.946 64.6215 38.878 64.5534 38.878H63.6011C63.5331 38.878 63.4991 38.946 63.4991 38.98V45.4426C63.4991 45.5107 63.5331 45.5787 63.6011 45.5787H64.5534C64.6215 45.5787 64.6555 45.5107 64.6555 45.4426Z" fill="#070D24"/>
<path id="&#38;lt;Path&#38;gt;_32" d="M70.9475 45.7485C72.376 45.7485 73.2262 44.7621 73.2262 43.6397C73.2262 42.3812 72.3079 41.7689 71.3556 41.5648L70.8454 41.4968C70.3353 41.3948 70.0632 41.0546 70.0632 40.6465C70.0632 40.1703 70.4033 39.8302 70.9815 39.8302C71.4236 39.8302 71.7978 40.0682 71.9678 40.5104C72.012 40.5784 72.0699 40.5887 72.1379 40.5444L73.0222 40.2043C73.0902 40.1805 73.114 40.1363 73.0902 40.0682C72.7501 39.2519 72.0018 38.7077 70.9815 38.7077C69.6891 38.7077 68.8388 39.6261 68.8388 40.6805C68.8388 41.7349 69.553 42.4832 70.5734 42.6873L71.0495 42.7553C71.6617 42.8914 72.0018 43.1635 72.0018 43.7077C72.0018 44.2179 71.6277 44.5921 70.9475 44.5921C70.4033 44.5921 69.9612 44.3199 69.7911 43.8097C69.7911 43.7417 69.7231 43.7077 69.6551 43.7417L68.7708 44.0819C68.7027 44.1261 68.6789 44.1839 68.7027 44.2519C69.0429 45.1703 69.8931 45.7485 70.9475 45.7485Z" fill="#070D24"/>
<path id="&#38;lt;Compound Path&#38;gt;_10" fill-rule="evenodd" clip-rule="evenodd" d="M77.8858 39.014L79.7565 45.4426C79.7565 45.5345 79.7225 45.5787 79.6544 45.5787H78.6681C78.6001 45.5787 78.5559 45.5447 78.5321 45.4766L78.1919 44.2862C78.1919 44.2181 78.1579 44.2181 78.0899 44.2181H75.6751C75.6411 44.2181 75.6071 44.2181 75.5731 44.2862L75.233 45.4766C75.2092 45.5447 75.1751 45.5787 75.1309 45.5787H74.1446C74.0528 45.5787 74.0188 45.5345 74.0426 45.4426L75.8792 39.014C75.9132 38.912 75.9472 38.878 76.0492 38.878H77.7158C77.8178 38.878 77.8858 38.912 77.8858 39.014ZM75.9812 43.0957H77.7838C77.828 43.1195 77.8518 43.0957 77.8518 43.0277L77.0015 40.0685C76.9777 40.0243 76.9573 40.0004 76.9335 40.0004H76.8315C76.8077 40.0004 76.7975 40.0243 76.7975 40.0685L75.9472 43.0277C75.9234 43.0957 75.937 43.1195 75.9812 43.0957Z" fill="#070D24"/>
<path id="&#38;lt;Path&#38;gt;_33" d="M81.0489 45.5787H82.0012C82.0692 45.5787 82.1032 45.5106 82.1032 45.4766V40.9528C82.1032 40.9188 82.1373 40.8848 82.1713 40.9528L83.7698 43.5038C83.8718 43.6399 83.9739 43.6399 84.0759 43.5038L85.6744 40.9528C85.7084 40.8848 85.7425 40.9188 85.7425 40.9528V45.4766C85.7425 45.5106 85.7765 45.5787 85.8445 45.5787H86.7968C86.8648 45.5787 86.8988 45.5106 86.8988 45.4766V38.98C86.8988 38.946 86.8648 38.878 86.7968 38.878H85.6744C85.6064 38.878 85.5622 38.9018 85.5384 38.946L83.9739 41.5991C83.9399 41.6671 83.9059 41.6671 83.8718 41.5991L82.3073 38.946C82.2835 38.9018 82.2393 38.878 82.1713 38.878H81.0489C80.9809 38.878 80.9469 38.946 80.9469 38.98V45.4766C80.9469 45.5106 80.9809 45.5787 81.0489 45.5787Z" fill="#070D24"/>
<path id="&#38;lt;Path&#38;gt;_34" d="M92.5447 38.878H88.1913C88.1233 38.878 88.0552 38.946 88.0552 38.98V39.8644C88.0552 39.9324 88.1233 40.0004 88.1913 40.0004H89.7218C89.7558 40.0004 89.7898 40.0004 89.7898 40.0345V45.4426C89.7898 45.5107 89.8238 45.5787 89.8918 45.5787H90.8442C90.9122 45.5787 90.9462 45.5107 90.9462 45.4426V40.0345C90.9462 40.0106 90.97 40.0004 91.0142 40.0004H92.5447C92.6128 40.0004 92.6808 39.9324 92.6808 39.8644V38.98C92.6808 38.946 92.6128 38.878 92.5447 38.878Z" fill="#070D24"/>
</g>
</svg>
