<svg width="205" height="159" viewBox="0 0 205 159" fill="none" xmlns="http://www.w3.org/2000/svg">
<g id="Ebene 1">
<path id="&#38;lt;Path&#38;gt;" d="M12.6318 65.0058C11.7754 65.0058 11.1331 64.3634 11.1331 63.5605C11.1331 62.7576 11.7754 62.1152 12.6318 62.1152H38.7519C39.5547 62.1152 40.197 62.7576 40.197 63.5605C40.197 64.3634 39.5547 65.0058 38.7519 65.0058H12.6318Z" fill="white"/>
<path id="&#38;lt;Path&#38;gt;_2" d="M4.4965 72.4981C3.6401 72.4981 2.9978 71.8557 2.9978 71.0528C2.9978 70.2499 3.6401 69.554 4.4965 69.554H46.3529V63.2912L43.3555 60.7753C43.2485 60.6308 43.1575 60.4916 43.0879 60.3471C42.9808 60.133 42.9434 59.9028 42.9808 59.6512V50.6049C42.9273 50.1767 43.0879 49.802 43.409 49.4808V49.4273L48.1192 46.2691V37.5975C47.7981 37.544 47.4234 37.4369 47.1558 37.1693C46.8346 36.7946 46.6741 36.3663 46.7276 35.9381V27.4271C46.6741 26.9989 46.8346 26.5706 47.1558 26.303C47.4234 25.9818 47.7981 25.8748 48.1727 25.8212H51.3307L56.7367 2.05458V1.94752C56.7742 1.84047 56.8277 1.73341 56.8973 1.62635C56.9348 1.51929 57.0043 1.41224 57.1114 1.30518C57.379 1.03754 57.7537 0.876953 58.1284 0.876953C58.8242 0.876953 59.3594 1.30518 59.5735 1.94752V2.05458L64.9795 25.8212H68.1375C68.5122 25.8748 68.8868 25.9818 69.1545 26.303C69.4756 26.5706 69.6362 26.9989 69.5827 27.4271V35.9381C69.6362 36.3663 69.4756 36.7946 69.1545 37.1693C68.8868 37.4369 68.5122 37.544 68.191 37.5975V46.2691L71.349 48.4102L71.4025 48.4638L72.7406 49.3202L72.9012 49.4273C73.4365 49.909 73.5435 50.7655 73.1153 51.3543C72.6871 52.0502 71.7772 52.2108 71.0814 51.7825L70.332 51.2473L66.05 48.4102C65.8359 48.3032 65.6593 48.1426 65.5148 47.9285C65.3542 47.6608 65.2472 47.3932 65.2472 47.1256V36.0987C65.2472 35.724 65.4077 35.3493 65.6754 35.0817C65.943 34.814 66.2641 34.6534 66.6388 34.6534V28.7653H63.9626C63.5344 28.8188 63.1062 28.6582 62.8386 28.3371C62.6619 28.1604 62.5335 27.9624 62.4639 27.7483L62.4103 27.6412L58.1284 8.478L53.8999 27.6412L53.8464 27.7483C53.7768 27.9624 53.6483 28.1604 53.4717 28.3371C53.2041 28.6582 52.7759 28.8188 52.3477 28.7653H49.6714V34.6534C50.0461 34.6534 50.3673 34.814 50.6349 35.0817C50.9025 35.3493 51.0631 35.724 51.0631 36.0987V47.1256C51.0631 47.3932 50.956 47.6608 50.7955 47.9285C50.6509 48.1426 50.4743 48.3032 50.2602 48.4102L45.9247 51.3008V59.1695L48.8686 61.6318C49.1362 61.8994 49.2968 62.2741 49.2968 62.6488V71.0528C49.2968 71.9092 48.6545 72.4981 47.8516 72.4981H4.4965Z" fill="#99EE63"/>
<path id="&#38;lt;Path&#38;gt;_3" d="M192.368 65.0058C193.171 65.0058 193.813 64.3634 193.813 63.5605C193.813 62.7576 193.171 62.1152 192.368 62.1152H166.194C165.392 62.1152 164.749 62.7576 164.749 63.5605C164.749 64.3634 165.392 65.0058 166.194 65.0058H192.368Z" fill="#99EE63"/>
<path id="&#38;lt;Path&#38;gt;_4" d="M200.504 72.4981C201.307 72.4981 201.949 71.8557 201.949 71.0528C201.949 70.2499 201.307 69.554 200.504 69.554H158.594V63.2912L161.591 60.7753C161.698 60.6308 161.789 60.4916 161.859 60.3471C161.966 60.133 162.003 59.9028 161.966 59.6512V50.6049C162.019 50.1767 161.859 49.802 161.538 49.4808L161.484 49.4273L156.828 46.2691V37.5975C157.149 37.544 157.523 37.4369 157.791 37.1693C158.112 36.7946 158.273 36.3663 158.219 35.9381V27.4271C158.273 26.9989 158.112 26.5706 157.791 26.303C157.523 25.9818 157.149 25.8748 156.774 25.8212H153.67L148.21 2.05458V1.94752C148.173 1.84047 148.119 1.73341 148.05 1.62635C148.012 1.51929 147.942 1.41224 147.835 1.30518C147.568 1.03754 147.193 0.876953 146.818 0.876953C146.123 0.876953 145.587 1.30518 145.373 1.94752V2.05458L139.967 25.8212H136.809C136.435 25.8748 136.06 25.9818 135.792 26.303C135.471 26.5706 135.364 26.9989 135.364 27.4271V35.9381C135.311 36.3663 135.471 36.7946 135.792 37.1693C136.06 37.4369 136.435 37.544 136.756 37.5975V46.2691L133.598 48.4102L133.544 48.4638L132.206 49.3202L132.099 49.4273C131.51 49.909 131.403 50.7655 131.831 51.3543C132.26 52.0502 133.17 52.2108 133.865 51.7825L134.615 51.2473L138.897 48.4102C139.111 48.3032 139.288 48.1426 139.432 47.9285C139.593 47.6608 139.7 47.3932 139.7 47.1256V36.0987C139.7 35.724 139.539 35.3493 139.271 35.0817C139.004 34.814 138.683 34.6534 138.308 34.6534V28.7653H140.984C141.412 28.8188 141.841 28.6582 142.162 28.3371C142.338 28.1604 142.445 27.9624 142.483 27.7483L142.536 27.6412L146.818 8.478L151.047 27.6412L151.1 27.7483C151.17 27.9624 151.298 28.1604 151.475 28.3371C151.796 28.6582 152.171 28.8188 152.599 28.7653H155.275V34.6534C154.954 34.6534 154.58 34.814 154.312 35.0817C154.044 35.3493 153.884 35.724 153.884 36.0987V47.1256C153.884 47.3932 153.991 47.6608 154.151 47.9285C154.296 48.1426 154.472 48.3032 154.687 48.4102L159.022 51.3008V59.1695L156.078 61.6318C155.811 61.8994 155.65 62.2741 155.65 62.6488V71.0528C155.65 71.9092 156.292 72.4981 157.095 72.4981H200.504Z" fill="white"/>
<path id="&#38;lt;Path&#38;gt;_5" d="M75.4705 112.323V110.877L73.9183 109.432C73.9183 109.432 73.383 108.95 73.4901 108.147C74.2929 104.722 77.3974 101.296 82.5358 100.707H82.8034C83.6598 100.707 84.3021 101.349 84.3021 102.152C84.3021 102.955 83.6598 103.598 82.9104 103.651C80.6089 103.972 77.9862 104.936 76.648 107.933L77.9326 109.218C78.2538 109.486 78.4144 109.86 78.4144 110.289V113.768C78.4144 114.571 77.7185 115.267 76.9157 115.267H42.2316C41.4287 115.267 40.7329 114.571 40.7329 113.768V110.449C40.7329 110.021 40.8935 109.646 41.2146 109.379L42.1781 108.415C40.7329 104.936 34.5775 103.705 30.8308 103.651H22.6415C21.8386 103.651 21.1428 103.009 21.1428 102.152C21.1428 101.349 21.8386 100.707 22.6415 100.707H30.9914C41.054 101.082 44.7473 105.364 45.2825 108.576C45.3896 109.379 44.8543 109.86 44.8543 109.86L43.6768 111.038V112.323H75.4705Z" fill="#99EE63"/>
<path id="&#38;lt;Path&#38;gt;_6" d="M129.637 112.323V110.877L131.189 109.432C131.189 109.432 131.671 108.95 131.564 108.147C130.815 104.722 127.71 101.296 122.572 100.707H122.251C121.448 100.707 120.805 101.349 120.805 102.152C120.805 102.955 121.394 103.598 122.197 103.651C124.445 103.972 127.121 104.936 128.459 107.933L127.121 109.218C126.854 109.486 126.693 109.86 126.693 110.289V113.768C126.693 114.571 127.335 115.267 128.138 115.267H162.876C163.679 115.267 164.321 114.571 164.321 113.768V110.449C164.321 110.021 164.161 109.646 163.893 109.379L162.929 108.415C164.375 104.936 170.476 103.705 174.223 103.651H182.466C183.269 103.651 183.911 103.009 183.911 102.152C183.911 101.349 183.269 100.707 182.466 100.707H174.063C164 101.082 160.36 105.364 159.825 108.576C159.718 109.379 160.2 109.86 160.2 109.86L161.377 111.038V112.323H129.637Z" fill="white"/>
<path id="&#38;lt;Path&#38;gt;_7" d="M83.6055 127.151C83.3914 127.258 83.1613 127.312 82.9097 127.312C82.6956 127.312 82.4815 127.275 82.2674 127.205L73.1147 122.816L63.3196 127.473L52.9893 122.601C52.4541 122.387 52.0259 121.852 52.0259 121.21C52.0259 120.407 52.6682 119.711 53.5246 119.711C53.7761 119.711 54.0063 119.781 54.2204 119.925L63.3196 124.368L72.5259 119.818C72.6704 119.781 72.831 119.748 73.0076 119.711H73.0611C73.3448 119.711 73.5964 119.781 73.8105 119.925L82.9097 124.368L91.9554 119.925C91.9929 119.888 92.0464 119.855 92.116 119.818C92.223 119.781 92.3301 119.764 92.4371 119.764C92.5067 119.727 92.5977 119.711 92.7047 119.711C92.9884 119.711 93.24 119.781 93.4541 119.925L102.446 124.368L111.599 119.872H111.653C111.813 119.764 111.92 119.764 112.027 119.764L112.081 119.711H112.402C112.546 119.748 112.686 119.781 112.83 119.818L112.937 119.872L122.036 124.368L131.136 119.925C131.35 119.781 131.58 119.711 131.831 119.711C132.045 119.711 132.244 119.748 132.42 119.818L141.626 124.368L150.726 119.925C150.94 119.781 151.17 119.711 151.421 119.711C152.278 119.711 152.92 120.407 152.92 121.21C152.92 121.852 152.492 122.387 151.957 122.601L141.626 127.473L131.885 122.816L122.679 127.205C122.502 127.275 122.288 127.312 122.036 127.312C121.822 127.312 121.624 127.275 121.448 127.205L112.241 122.816L103.196 127.151C102.982 127.258 102.73 127.312 102.446 127.312C102.195 127.312 101.965 127.258 101.75 127.151L92.6512 122.816L83.6055 127.151Z" fill="white"/>
<path id="&#38;lt;Path&#38;gt;_8" d="M83.6056 137.535C83.3915 137.642 83.1613 137.696 82.9097 137.696C82.6582 137.696 82.4441 137.642 82.2674 137.535L73.0077 133.146L66.8523 136.143C66.6757 136.213 66.4937 136.251 66.3171 136.251C65.4607 136.251 64.8184 135.608 64.8184 134.805C64.8184 134.109 65.2466 133.574 65.8353 133.413L72.4189 130.255C72.633 130.148 72.8631 130.095 73.1147 130.095C73.3663 130.095 73.5964 130.148 73.8105 130.255L82.9097 134.752C91.9554 130.309 91.9554 130.255 91.9554 130.255C91.9929 130.255 92.0464 130.239 92.116 130.202C92.2231 130.164 92.3301 130.132 92.4372 130.095H92.7048C92.9885 130.095 93.24 130.164 93.4541 130.309L102.5 134.752L111.599 130.255L111.653 130.202C111.813 130.148 111.92 130.095 112.027 130.095H112.402C112.546 130.095 112.686 130.132 112.83 130.202L112.937 130.255L122.09 134.752L131.136 130.255C131.35 130.148 131.58 130.095 131.831 130.095C132.115 130.095 132.383 130.164 132.634 130.309L139.111 133.413C139.7 133.574 140.128 134.109 140.128 134.805C140.128 135.608 139.485 136.251 138.629 136.251C138.452 136.251 138.27 136.213 138.094 136.143L131.938 133.146L122.679 137.535C122.502 137.642 122.304 137.696 122.09 137.696C121.838 137.696 121.624 137.642 121.448 137.535L112.295 133.146L103.196 137.535C102.982 137.642 102.751 137.696 102.5 137.696C102.248 137.696 102.034 137.642 101.858 137.535L92.7048 133.199L83.6056 137.535Z" fill="#99EE63"/>
<path id="&#38;lt;Path&#38;gt;_9" d="M111.706 150.756C111.882 150.686 112.08 150.648 112.295 150.648C113.097 150.648 113.74 151.291 113.74 152.094C113.74 152.79 113.312 153.325 112.723 153.539L103.088 158.089C102.912 158.196 102.714 158.249 102.5 158.249C102.248 158.249 102.034 158.196 101.857 158.089L92.1693 153.485C91.634 153.271 91.2058 152.736 91.2058 152.094C91.2058 151.291 91.8481 150.648 92.7045 150.648C92.9561 150.648 93.1862 150.702 93.4003 150.809L102.5 155.305L111.706 150.756Z" fill="#99EE63"/>
<path id="&#38;lt;Path&#38;gt;_10" d="M83.6058 147.812C83.3917 147.919 83.1615 147.972 82.9099 147.972C82.6584 147.972 82.4443 147.919 82.2676 147.812L72.5797 143.208C72.0444 142.994 71.6162 142.459 71.6162 141.816C71.6162 141.013 72.312 140.371 73.1149 140.371C73.3665 140.371 73.5966 140.425 73.8107 140.532L82.9099 145.028L91.9556 140.585C91.9931 140.548 92.0466 140.516 92.1162 140.478C92.2233 140.441 92.3303 140.409 92.4374 140.371H92.705C92.9887 140.371 93.2402 140.441 93.4543 140.585L102.447 145.028L111.599 140.532L111.653 140.478C111.76 140.441 111.867 140.409 111.974 140.371C111.904 140.409 111.851 140.425 111.813 140.425L111.706 140.478C111.744 140.441 111.776 140.425 111.813 140.425C111.883 140.387 111.958 140.371 112.027 140.371H112.402C112.547 140.371 112.686 140.409 112.83 140.478L112.937 140.532L122.037 145.028L131.136 140.532C131.35 140.425 131.58 140.371 131.832 140.371C132.688 140.371 133.33 141.013 133.33 141.816C133.33 142.459 132.902 142.994 132.367 143.208L122.679 147.812C122.502 147.919 122.288 147.972 122.037 147.972C121.822 147.972 121.608 147.919 121.394 147.812L112.242 143.476L103.196 147.758C102.982 147.903 102.752 147.972 102.5 147.972C102.248 147.972 102.034 147.919 101.858 147.812L92.6515 143.476L83.6058 147.812Z" fill="white"/>
<path id="&#38;lt;Path&#38;gt;_11" d="M5.35248 81.3828H0.160574C0.0535248 81.3828 0 81.4363 0 81.5434V91.7138C0 91.8209 0.0535248 91.8744 0.160574 91.8744H1.60574C1.71279 91.8744 1.81984 91.8209 1.81984 91.7138V87.6456C1.81984 87.5921 1.87337 87.5921 1.87337 87.5921H5.35248C5.45953 87.5921 5.51305 87.4851 5.51305 87.378V85.9863C5.51305 85.8792 5.45953 85.8257 5.35248 85.8257H1.87337C1.81984 85.8257 1.81984 85.7721 1.81984 85.7186V83.2028C1.81984 83.1493 1.87337 83.0957 1.87337 83.0957H5.35248C5.45953 83.0957 5.51305 83.0422 5.51305 82.9351V81.5434C5.51305 81.4363 5.45953 81.3828 5.35248 81.3828Z" fill="white"/>
<path id="&#38;lt;Compound Path&#38;gt;" fill-rule="evenodd" clip-rule="evenodd" d="M9.20639 91.8744H7.76122C7.65417 91.8744 7.54712 91.8209 7.54712 91.7138V81.5434C7.54712 81.4363 7.65417 81.3828 7.76122 81.3828H10.9727C13.2207 81.3828 14.9871 82.721 14.9871 85.0763C14.9871 86.7357 14.1307 87.9133 12.7925 88.4486C12.6855 88.486 12.6694 88.5396 12.739 88.6092L14.9871 91.6603C15.0406 91.7673 15.0406 91.8744 14.88 91.8744H13.0602C12.8996 91.8744 12.7925 91.8744 12.6855 91.6603L10.7586 88.9839C10.7051 88.8233 10.598 88.8233 10.491 88.8233H9.47401C9.42049 88.8233 9.36696 88.8233 9.36696 88.9303V91.7138C9.36696 91.8209 9.31344 91.8744 9.20639 91.8744ZM9.36696 83.2028V87.0033C9.36696 87.0033 9.42049 87.0568 9.47401 87.0568H10.8657C12.0967 87.0568 13.0602 86.4145 13.0602 85.0763C13.0602 83.7381 12.0967 83.0957 10.8657 83.0957H9.47401C9.40443 83.0957 9.36696 83.1332 9.36696 83.2028Z" fill="white"/>
<path id="&#38;lt;Path&#38;gt;_12" d="M18.6268 81.3828H17.1281C17.0211 81.3828 16.9675 81.4363 16.9675 81.5434V91.7138C16.9675 91.8209 17.0211 91.8744 17.1281 91.8744H18.6268C18.7338 91.8744 18.7874 91.8209 18.7874 91.7138V81.5434C18.7874 81.4363 18.7338 81.3828 18.6268 81.3828Z" fill="white"/>
<path id="&#38;lt;Path&#38;gt;_13" d="M21.3569 81.5434V91.7138C21.3569 91.8209 21.464 91.8744 21.571 91.8744H27.0306C27.1376 91.8744 27.1911 91.8209 27.1911 91.7138V90.3221C27.1911 90.215 27.1376 90.1615 27.0306 90.1615H23.2838C23.2303 90.1615 23.2303 90.108 23.2303 90.0544V87.5386C23.2303 87.4851 23.2838 87.4315 23.2838 87.4315H27.0306C27.1376 87.4315 27.1911 87.378 27.1911 87.2709V85.8792C27.1911 85.7722 27.1376 85.7186 27.0306 85.7186H23.2838C23.2464 85.7186 23.2303 85.6812 23.2303 85.6116V83.2028C23.2303 83.1493 23.2838 83.0957 23.2838 83.0957H27.0306C27.1376 83.0957 27.1911 83.0422 27.1911 82.9351V81.5434C27.1911 81.4363 27.1376 81.3828 27.0306 81.3828H21.571C21.464 81.3828 21.3569 81.4363 21.3569 81.5434Z" fill="white"/>
<path id="&#38;lt;Compound Path&#38;gt;_2" fill-rule="evenodd" clip-rule="evenodd" d="M37.8954 86.6286C37.8954 89.7868 35.7544 91.8744 32.8105 91.8744H29.5991C29.492 91.8744 29.4385 91.8209 29.4385 91.7138V81.5434C29.4385 81.4363 29.492 81.3828 29.5991 81.3828H32.8105C35.7544 81.3828 37.8954 83.4169 37.8954 86.6286ZM31.3654 90.1615H32.5964C34.3092 90.1615 35.915 89.2515 35.915 86.6286C35.915 84.0057 34.3092 83.0957 32.5964 83.0957H31.3654C31.3118 83.0957 31.2583 83.1493 31.2583 83.2028V90.0544C31.2583 90.124 31.2958 90.1615 31.3654 90.1615Z" fill="white"/>
<path id="&#38;lt;Compound Path&#38;gt;_3" fill-rule="evenodd" clip-rule="evenodd" d="M41.482 91.8744H40.0369C39.9298 91.8744 39.8228 91.8209 39.8228 91.7138V81.5434C39.8228 81.4363 39.9298 81.3828 40.0369 81.3828H43.2483C45.4964 81.3828 47.2627 82.721 47.2627 85.0763C47.2627 86.7357 46.4063 87.9133 45.0682 88.4486C44.9611 88.486 44.9451 88.5396 45.0147 88.6092L47.2627 91.6603C47.3162 91.7673 47.3162 91.8744 47.1556 91.8744H45.3358C45.1752 91.8744 45.0682 91.8744 44.9611 91.6603L43.0342 88.9839C42.9807 88.8233 42.8737 88.8233 42.7666 88.8233H41.7496C41.6961 88.8233 41.6426 88.8233 41.6426 88.9303V91.7138C41.6426 91.8209 41.5891 91.8744 41.482 91.8744ZM41.6426 83.2028V87.0033C41.6426 87.0033 41.6961 87.0568 41.7496 87.0568H43.1413C44.3724 87.0568 45.3358 86.4145 45.3358 85.0763C45.3358 83.7381 44.3724 83.0957 43.1413 83.0957H41.7496C41.6801 83.0957 41.6426 83.1332 41.6426 83.2028Z" fill="white"/>
<path id="&#38;lt;Path&#38;gt;_14" d="M50.9027 81.3828H49.404C49.2969 81.3828 49.2434 81.4363 49.2434 81.5434V91.7138C49.2434 91.8209 49.2969 91.8744 49.404 91.8744H50.9027C51.0097 91.8744 51.0633 91.8209 51.0633 91.7138V81.5434C51.0633 81.4363 51.0097 81.3828 50.9027 81.3828Z" fill="white"/>
<path id="&#38;lt;Path&#38;gt;_15" d="M58.3954 92.1429C60.4294 92.1429 62.1422 91.1794 62.9986 89.6271C63.036 89.52 63.0146 89.4504 62.9451 89.4129L61.6605 88.5565C61.6069 88.4494 61.4999 88.503 61.4464 88.61C60.8041 89.7341 59.7336 90.3229 58.3954 90.3229C56.308 90.3229 54.9699 88.8241 54.9699 86.6295C54.9699 84.4348 56.308 82.936 58.3954 82.936C59.7336 82.936 60.8041 83.5248 61.4464 84.6489C61.4999 84.756 61.6069 84.756 61.6605 84.7024L62.9451 83.846C63.0146 83.8085 63.036 83.7389 62.9986 83.6319C62.1422 82.026 60.4294 81.0625 58.3954 81.0625C55.3445 81.0625 53.043 83.3107 53.043 86.6295C53.043 89.9482 55.3445 92.1429 58.3954 92.1429Z" fill="white"/>
<path id="&#38;lt;Path&#38;gt;_16" d="M66.5313 85.6651V81.5434C66.5313 81.4363 66.4777 81.3828 66.3707 81.3828H64.9255C64.8185 81.3828 64.7114 81.4363 64.7114 81.5434V91.7138C64.7114 91.8209 64.8185 91.8744 64.9255 91.8744H66.3707C66.4777 91.8744 66.5313 91.8209 66.5313 91.7138V87.5386C66.5313 87.5011 66.5687 87.4851 66.6383 87.4851H70.3315C70.3672 87.4851 70.3851 87.5029 70.3851 87.5386V91.7138C70.3851 91.8209 70.4921 91.8744 70.5992 91.8744H72.0443C72.1514 91.8744 72.2584 91.8209 72.2584 91.7138V81.5434C72.2584 81.4363 72.1514 81.3828 72.0443 81.3828H70.5992C70.4921 81.3828 70.3851 81.4363 70.3851 81.5434V85.6651C70.3851 85.7026 70.369 85.7186 70.3315 85.7186H66.6383C66.5687 85.7186 66.5313 85.7026 66.5313 85.6651Z" fill="white"/>
<path id="&#38;lt;Path&#38;gt;_17" d="M77.6645 92.1431C79.9125 92.1431 81.2506 90.6443 81.2506 88.8243C81.2506 86.8973 79.8054 85.8802 78.3067 85.6126L77.5039 85.452C76.701 85.2914 76.2728 84.8097 76.2728 84.1673C76.2728 83.4179 76.8081 82.8291 77.718 82.8291C78.4673 82.8291 79.0026 83.2574 79.3237 83.8997C79.3612 84.0068 79.4308 84.0442 79.5378 84.0068L80.9295 83.4715C81.0365 83.4019 81.074 83.3109 81.0365 83.2038C80.5013 81.9727 79.3237 81.1162 77.7715 81.1162C75.684 81.1162 74.3459 82.5615 74.3459 84.2209C74.3459 85.8802 75.4699 87.0579 77.1292 87.3255L77.8785 87.4861C78.7885 87.6467 79.3237 88.1284 79.3237 88.9849C79.3237 89.7878 78.7349 90.3231 77.6645 90.3231C76.8081 90.3231 76.1122 89.9484 75.8446 89.092C75.8446 88.9849 75.7376 88.9314 75.6305 88.9849L74.2389 89.5737C74.1318 89.6112 74.0943 89.6808 74.1318 89.7878C74.6671 91.2866 76.0052 92.1431 77.6645 92.1431Z" fill="white"/>
<path id="&#38;lt;Path&#38;gt;_18" d="M85.051 85.6651V81.5434C85.051 81.4363 84.9975 81.3828 84.8905 81.3828H83.3918C83.2847 81.3828 83.2312 81.4363 83.2312 81.5434V91.7138C83.2312 91.8209 83.2847 91.8744 83.3918 91.8744H84.8905C84.9975 91.8744 85.051 91.8209 85.051 91.7138V87.5386C85.051 87.5011 85.0885 87.4851 85.1581 87.4851H88.7978C88.8691 87.4851 88.9048 87.5029 88.9048 87.5386V91.7138C88.9048 91.8209 89.0119 91.8744 89.1189 91.8744H90.5641C90.6711 91.8744 90.7247 91.8209 90.7247 91.7138V81.5434C90.7247 81.4363 90.6711 81.3828 90.5641 81.3828H89.1189C89.0119 81.3828 88.9048 81.4363 88.9048 81.5434V85.6651C88.9048 85.7026 88.8674 85.7186 88.7978 85.7186H85.1581C85.0885 85.7186 85.051 85.7026 85.051 85.6651Z" fill="white"/>
<path id="&#38;lt;Compound Path&#38;gt;_4" fill-rule="evenodd" clip-rule="evenodd" d="M98.486 81.5969L101.376 91.7138C101.376 91.8209 101.323 91.8744 101.216 91.8744H99.6635C99.5564 91.8744 99.4869 91.8369 99.4494 91.7673L98.9142 89.8938C98.9142 89.7868 98.8606 89.7333 98.7536 89.7333H94.9533C94.8998 89.7333 94.8463 89.7868 94.7927 89.8938L94.2575 91.7673C94.2575 91.8369 94.204 91.8744 94.0969 91.8744H92.5447C92.4002 91.8744 92.3467 91.8209 92.3841 91.7138L95.2745 81.5969C95.328 81.3828 95.435 81.3828 95.5421 81.3828H98.1648C98.3254 81.3828 98.4324 81.3828 98.486 81.5969ZM95.435 88.0203H98.2719C98.3414 88.0203 98.3789 87.9829 98.3789 87.9133L97.0408 83.2028C97.0033 83.1332 96.9712 83.0957 96.9337 83.0957H96.7732C96.7357 83.0957 96.7196 83.1332 96.7196 83.2028L95.3815 87.9133C95.344 87.9829 95.3655 88.0203 95.435 88.0203Z" fill="white"/>
<path id="&#38;lt;Path&#38;gt;_19" d="M104.64 81.3828H103.195C103.088 81.3828 102.981 81.4363 102.981 81.5434V91.7138C102.981 91.8209 103.088 91.8744 103.195 91.8744H104.64C104.748 91.8744 104.855 91.8209 104.855 91.7138V81.5434C104.855 81.4363 104.748 81.3828 104.64 81.3828Z" fill="white"/>
<path id="&#38;lt;Path&#38;gt;_20" d="M113.473 88.5021L109.565 81.5434C109.458 81.3828 109.405 81.3828 109.244 81.3828H107.585C107.478 81.3828 107.424 81.4363 107.424 81.5434V91.7138C107.424 91.8209 107.478 91.8744 107.585 91.8744H109.084C109.191 91.8744 109.244 91.8209 109.244 91.7138V84.8086C109.244 84.7016 109.298 84.6481 109.351 84.7551L113.259 91.6603C113.366 91.8209 113.473 91.8744 113.633 91.8744H115.239C115.346 91.8744 115.4 91.8209 115.4 91.7138V81.5434C115.4 81.4363 115.346 81.3828 115.239 81.3828H113.794C113.687 81.3828 113.58 81.4363 113.58 81.5434V88.4486C113.58 88.5556 113.526 88.5556 113.473 88.5021Z" fill="white"/>
<path id="&#38;lt;Path&#38;gt;_21" d="M121.447 88.1818V87.0041C121.447 86.8971 121.394 86.79 121.287 86.79H117.808C117.701 86.79 117.594 86.8971 117.594 87.0041V88.1818C117.594 88.2888 117.701 88.3424 117.808 88.3424H121.287C121.394 88.3424 121.447 88.2888 121.447 88.1818Z" fill="white"/>
<path id="&#38;lt;Path&#38;gt;_22" d="M125.515 91.7153V89.0924C125.515 88.9318 125.515 88.8782 125.569 88.8247L126.372 87.54C126.425 87.4865 126.479 87.4865 126.532 87.54L128.513 91.7153C128.55 91.8223 128.62 91.8758 128.727 91.8758H130.386C130.547 91.8758 130.6 91.8223 130.547 91.6617L127.817 86.0412C127.71 85.9342 127.71 85.8806 127.817 85.7201L130.44 81.5984C130.547 81.4378 130.493 81.3843 130.333 81.3843H128.566C128.497 81.3468 128.422 81.3843 128.352 81.4913L125.623 85.9342C125.569 85.9877 125.515 85.9877 125.515 85.8806V81.5448C125.515 81.4378 125.408 81.3843 125.301 81.3843H123.856C123.749 81.3843 123.642 81.4378 123.642 81.5448V91.7153C123.642 91.8223 123.749 91.8758 123.856 91.8758H125.301C125.408 91.8758 125.515 91.8223 125.515 91.7153Z" fill="white"/>
<path id="&#38;lt;Compound Path&#38;gt;_5" fill-rule="evenodd" clip-rule="evenodd" d="M133.919 91.8744H132.474C132.367 91.8744 132.26 91.8209 132.26 91.7138V81.5434C132.26 81.4363 132.367 81.3828 132.474 81.3828H135.685C137.933 81.3828 139.7 82.721 139.7 85.0763C139.7 86.7357 138.843 87.9133 137.505 88.4486C137.398 88.4486 137.398 88.5556 137.452 88.6092L139.7 91.6603C139.807 91.7673 139.753 91.8744 139.593 91.8744H137.773C137.612 91.8744 137.559 91.8744 137.452 91.6603L135.471 88.9839C135.418 88.8233 135.364 88.8233 135.204 88.8233H134.187C134.151 88.8233 134.133 88.859 134.133 88.9303V91.7138C134.133 91.8209 134.026 91.8744 133.919 91.8744ZM134.133 83.2028V87.0033C134.133 87.0033 134.133 87.0568 134.187 87.0568H135.578C136.809 87.0568 137.773 86.4145 137.773 85.0763C137.773 83.7381 136.809 83.0957 135.578 83.0957H134.187C134.149 83.0957 134.133 83.1332 134.133 83.2028Z" fill="white"/>
<path id="&#38;lt;Path&#38;gt;_23" d="M141.68 81.5434V91.7138C141.68 91.8209 141.787 91.8744 141.894 91.8744H147.3C147.407 91.8744 147.514 91.8209 147.514 91.7138V90.3221C147.514 90.215 147.407 90.1615 147.3 90.1615H143.607C143.553 90.1615 143.5 90.108 143.5 90.0544V87.5386C143.5 87.4851 143.553 87.4315 143.607 87.4315H147.3C147.407 87.4315 147.514 87.378 147.514 87.2709V85.8792C147.514 85.7722 147.407 85.7186 147.3 85.7186H143.607C143.537 85.7186 143.5 85.6812 143.5 85.6116V83.2028C143.5 83.1493 143.553 83.0957 143.607 83.0957H147.3C147.407 83.0957 147.514 83.0422 147.514 82.9351V81.5434C147.514 81.4363 147.407 81.3828 147.3 81.3828H141.894C141.787 81.3828 141.68 81.4363 141.68 81.5434Z" fill="white"/>
<path id="&#38;lt;Path&#38;gt;_24" d="M153.402 92.142C155.704 92.142 157.203 90.6432 157.203 88.1809V81.5434C157.203 81.4363 157.096 81.3828 156.989 81.3828H155.543C155.436 81.3828 155.383 81.4363 155.383 81.5434V88.0739C155.383 89.5727 154.634 90.3756 153.402 90.3756C152.171 90.3756 151.476 89.5727 151.476 88.0739V81.5434C151.476 81.4363 151.422 81.3828 151.315 81.3828H149.816C149.709 81.3828 149.656 81.4363 149.656 81.5434V88.1809C149.656 90.6432 151.101 92.142 153.402 92.142Z" fill="white"/>
<path id="&#38;lt;Path&#38;gt;_25" d="M159.182 91.8744H166.569C166.676 91.8744 166.729 91.8209 166.729 91.7138V90.3221C166.729 90.215 166.676 90.1615 166.569 90.1615H162.019C161.912 90.1615 161.896 90.0919 161.966 89.9474L166.408 81.7575C166.515 81.5434 166.408 81.3828 166.194 81.3828H159.075C158.968 81.3828 158.915 81.4363 158.915 81.5434V82.9351C158.915 83.0422 158.968 83.0957 159.075 83.0957H163.357C163.464 83.0957 163.518 83.1493 163.464 83.2563L158.968 91.4997C158.861 91.6603 159.022 91.8744 159.182 91.8744Z" fill="white"/>
<path id="&#38;lt;Compound Path&#38;gt;_6" fill-rule="evenodd" clip-rule="evenodd" d="M168.389 91.7138V81.5434C168.389 81.4363 168.496 81.3828 168.604 81.3828H172.029C174.063 81.3828 175.187 82.614 175.187 84.2198C175.187 85.1833 174.705 85.9327 174.01 86.361C173.902 86.4145 173.956 86.5216 174.063 86.5751C174.866 87.0033 175.348 87.8062 175.348 88.9303C175.348 90.5897 174.277 91.8744 172.136 91.8744H168.604C168.496 91.8744 168.389 91.8209 168.389 91.7138ZM170.263 83.2028V85.6116C170.263 85.6812 170.279 85.7186 170.316 85.7186H171.761C172.725 85.7186 173.26 85.1833 173.26 84.4339C173.26 83.631 172.725 83.0957 171.761 83.0957H170.316C170.279 83.0957 170.263 83.1332 170.263 83.2028ZM170.263 87.5386V90.0544C170.263 90.108 170.263 90.1615 170.316 90.1615H171.922C172.885 90.1615 173.421 89.5727 173.421 88.7697C173.421 87.9668 172.885 87.4315 171.922 87.4315H170.316C170.279 87.4315 170.263 87.469 170.263 87.5386Z" fill="white"/>
<path id="&#38;lt;Path&#38;gt;_26" d="M177.434 81.5434V91.7138C177.434 91.8209 177.488 91.8744 177.595 91.8744H183.054C183.161 91.8744 183.269 91.8209 183.269 91.7138V90.3221C183.269 90.215 183.161 90.1615 183.054 90.1615H179.361C179.308 90.1615 179.254 90.108 179.254 90.0544V87.5386C179.254 87.4851 179.308 87.4315 179.361 87.4315H183.054C183.161 87.4315 183.269 87.378 183.269 87.2709V85.8792C183.269 85.7722 183.161 85.7186 183.054 85.7186H179.361C179.292 85.7186 179.254 85.6812 179.254 85.6116V83.2028C179.254 83.1493 179.308 83.0957 179.361 83.0957H183.054C183.161 83.0957 183.269 83.0422 183.269 82.9351V81.5434C183.269 81.4363 183.161 81.3828 183.054 81.3828H177.595C177.488 81.3828 177.434 81.4363 177.434 81.5434Z" fill="white"/>
<path id="&#38;lt;Compound Path&#38;gt;_7" fill-rule="evenodd" clip-rule="evenodd" d="M187.123 91.8744H185.677C185.57 91.8744 185.463 91.8209 185.463 91.7138V81.5434C185.463 81.4363 185.57 81.3828 185.677 81.3828H188.889C191.137 81.3828 192.903 82.721 192.903 85.0763C192.903 86.7357 192.047 87.9133 190.709 88.4486C190.602 88.4486 190.602 88.5556 190.655 88.6092L192.903 91.6603C193.01 91.7673 192.957 91.8744 192.796 91.8744H190.976C190.816 91.8744 190.762 91.8744 190.655 91.6603L188.675 88.9839C188.621 88.8233 188.568 88.8233 188.407 88.8233H187.39C187.355 88.8233 187.337 88.859 187.337 88.9303V91.7138C187.337 91.8209 187.23 91.8744 187.123 91.8744ZM187.337 83.2028V87.0033C187.337 87.0033 187.337 87.0568 187.39 87.0568H188.782C190.013 87.0568 190.976 86.4145 190.976 85.0763C190.976 83.7381 190.013 83.0957 188.782 83.0957H187.39C187.353 83.0957 187.337 83.1332 187.337 83.2028Z" fill="white"/>
<path id="&#38;lt;Path&#38;gt;_27" d="M200.236 88.0747H202.752C202.805 88.0747 202.805 88.1283 202.805 88.1818C202.431 89.52 201.36 90.3229 199.755 90.3229C197.614 90.3229 196.222 88.8241 196.222 86.6295C196.222 84.4348 197.614 82.936 199.755 82.936C200.932 82.936 201.949 83.3642 202.591 84.2207C202.645 84.3277 202.752 84.3277 202.859 84.2742L204.037 83.3642C204.144 83.2946 204.16 83.2036 204.09 83.0966C203.127 81.8654 201.574 81.0625 199.755 81.0625C196.597 81.0625 194.241 83.3107 194.241 86.6295C194.241 89.9482 196.597 92.1429 199.755 92.1429C202.912 92.1429 204.893 90.0018 205 86.5224C205 86.4153 204.893 86.3618 204.786 86.3618H200.236C200.129 86.3618 200.076 86.4153 200.076 86.5224V87.9141C200.076 88.0212 200.129 88.0747 200.236 88.0747Z" fill="white"/>
<path id="&#38;lt;Compound Path&#38;gt;_8" fill-rule="evenodd" clip-rule="evenodd" d="M59.0916 72.3916V62.2211C59.0916 62.1676 59.1986 62.0605 59.3057 62.0605H62.7312C64.7652 62.0605 65.8892 63.2917 65.8892 64.8976C65.8892 65.8611 65.4075 66.6105 64.7117 67.0922C64.6046 67.1458 64.6581 67.1993 64.7652 67.2528C65.5681 67.681 66.0498 68.5375 66.0498 69.6081C66.0498 71.321 64.9793 72.6057 62.8383 72.6057H59.3057C59.1986 72.6057 59.0916 72.4986 59.0916 72.3916ZM60.9649 63.8805V66.3428C60.9649 66.3803 60.981 66.4124 61.0184 66.4499H62.4636C63.4271 66.4499 63.9623 65.9146 63.9623 65.1117C63.9623 64.3087 63.4271 63.827 62.4636 63.827H61.0184C60.981 63.827 60.9649 63.843 60.9649 63.8805ZM60.9649 68.2163V70.7322C60.9649 70.7857 60.9649 70.8392 61.0184 70.8392H62.6242C63.5876 70.8392 64.1229 70.3039 64.1229 69.501C64.1229 68.6981 63.5876 68.1093 62.6242 68.1093H61.0184C60.981 68.1093 60.9649 68.1467 60.9649 68.2163Z" fill="white"/>
<path id="&#38;lt;Path&#38;gt;_28" d="M68.3516 62.2211V72.3916C68.3516 72.4986 68.4586 72.6057 68.5657 72.6057H74.0252C74.1322 72.6057 74.1858 72.4986 74.1858 72.3916V70.9998C74.1858 70.8928 74.1322 70.8392 74.0252 70.8392H70.2785C70.2249 70.8392 70.2249 70.7857 70.2249 70.7322V68.2163C70.2249 68.1628 70.2249 68.1093 70.2785 68.1093H74.0252C74.1322 68.1093 74.1858 68.0557 74.1858 67.9487V66.6105C74.1858 66.5034 74.1322 66.3964 74.0252 66.3964H70.2785C70.241 66.3964 70.2249 66.3803 70.2249 66.3428V63.8805C70.2249 63.8448 70.2428 63.827 70.2785 63.827H74.0252C74.1322 63.827 74.1858 63.7199 74.1858 63.6129V62.2211C74.1858 62.1676 74.1322 62.0605 74.0252 62.0605H68.5657C68.4586 62.0605 68.3516 62.1676 68.3516 62.2211Z" fill="white"/>
<path id="&#38;lt;Path&#38;gt;_29" d="M76.1658 72.6057H83.5522C83.6593 72.6057 83.7128 72.4986 83.7128 72.4451V70.9998C83.7128 70.8928 83.6593 70.8392 83.5522 70.8392H79.0026C78.8956 70.8392 78.8795 70.7857 78.9491 70.6786L83.3917 62.4888C83.4987 62.2747 83.3917 62.0605 83.1776 62.0605H76.0588C75.9517 62.0605 75.8982 62.1676 75.8982 62.2211V63.6129C75.8982 63.7199 75.9517 63.827 76.0588 63.827H80.3408C80.4478 63.827 80.5013 63.827 80.4478 63.9876L75.9517 72.1774C75.8447 72.3915 76.0052 72.6057 76.1658 72.6057Z" fill="white"/>
<path id="&#38;lt;Path&#38;gt;_30" d="M87.2984 62.0605H85.7997C85.6927 62.0605 85.6392 62.1676 85.6392 62.2211V72.3916C85.6392 72.4986 85.6927 72.6057 85.7997 72.6057H87.2984C87.4055 72.6057 87.459 72.4986 87.459 72.3916V62.2211C87.459 62.1676 87.4055 62.0605 87.2984 62.0605Z" fill="white"/>
<path id="&#38;lt;Compound Path&#38;gt;_9" fill-rule="evenodd" clip-rule="evenodd" d="M91.9021 72.6057H90.457C90.3499 72.6057 90.2964 72.4986 90.2964 72.3916V62.2211C90.2964 62.1676 90.3499 62.0605 90.457 62.0605H93.6685C95.9165 62.0605 97.6828 63.4523 97.6828 65.8075C97.6828 67.4669 96.8264 68.591 95.4883 69.1263C95.3812 69.1638 95.3652 69.2334 95.4348 69.3404L97.6828 72.338C97.7899 72.4986 97.7363 72.6057 97.5758 72.6057H95.8094C95.5953 72.6057 95.5418 72.5521 95.4348 72.3916L93.5079 69.6616C93.4008 69.5545 93.3473 69.501 93.1867 69.501H92.2233C92.1698 69.501 92.1162 69.5545 92.1162 69.6081V72.3916C92.1162 72.4986 92.0092 72.6057 91.9021 72.6057ZM92.1162 63.8805V67.681C92.1162 67.7346 92.1162 67.7881 92.2233 67.7881H93.5614C94.7925 67.7881 95.7559 67.1458 95.7559 65.8075C95.7559 64.4693 94.7925 63.827 93.5614 63.827H92.2233C92.1537 63.827 92.1162 63.843 92.1162 63.8805Z" fill="white"/>
<path id="&#38;lt;Path&#38;gt;_31" d="M101.751 72.3916V69.7687C101.751 69.6616 101.804 69.5545 101.804 69.501L102.661 68.2163C102.661 68.1628 102.768 68.1628 102.768 68.2699L104.748 72.4451C104.818 72.5521 104.909 72.6057 105.016 72.6057H106.675C106.782 72.6057 106.889 72.4986 106.782 72.3916L104.052 66.7711C103.999 66.6105 103.999 66.5569 104.052 66.4499L106.729 62.2747C106.782 62.1676 106.729 62.0605 106.622 62.0605H104.855C104.748 62.0605 104.679 62.098 104.641 62.1676L101.858 66.6105C101.804 66.7175 101.751 66.664 101.751 66.6105V62.2211C101.751 62.1676 101.697 62.0605 101.59 62.0605H100.091C99.9844 62.0605 99.9309 62.1676 99.9309 62.2211V72.3916C99.9309 72.4986 99.9844 72.6057 100.091 72.6057H101.59C101.697 72.6057 101.751 72.4986 101.751 72.3916Z" fill="white"/>
<path id="&#38;lt;Path&#38;gt;_32" d="M111.653 72.8734C113.901 72.8734 115.239 71.321 115.239 69.5546C115.239 67.574 113.794 66.6105 112.295 66.2894L111.492 66.1823C110.689 66.0217 110.261 65.4864 110.261 64.8441C110.261 64.0947 110.796 63.5594 111.706 63.5594C112.402 63.5594 112.991 63.9341 113.258 64.63C113.328 64.737 113.419 64.7531 113.526 64.6835L114.918 64.1482C115.025 64.1107 115.062 64.0412 115.025 63.9341C114.49 62.6494 113.312 61.793 111.706 61.793C109.672 61.793 108.334 63.2382 108.334 64.8976C108.334 66.557 109.458 67.7346 111.064 68.0558L111.813 68.1629C112.777 68.377 113.312 68.8052 113.312 69.6617C113.312 70.4646 112.723 71.0534 111.653 71.0534C110.796 71.0534 110.101 70.6252 109.833 69.8222C109.833 69.7152 109.726 69.6617 109.619 69.7152L108.227 70.2505C108.12 70.3201 108.083 70.4111 108.12 70.5181C108.655 71.9634 109.993 72.8734 111.653 72.8734Z" fill="white"/>
<path id="&#38;lt;Compound Path&#38;gt;_10" fill-rule="evenodd" clip-rule="evenodd" d="M122.572 62.2747L125.516 72.3916C125.516 72.5361 125.462 72.6057 125.355 72.6057H123.803C123.696 72.6057 123.626 72.5521 123.589 72.4451L123.054 70.5716C123.054 70.4645 123 70.4645 122.893 70.4645H119.093C119.039 70.4645 118.986 70.4645 118.932 70.5716L118.397 72.4451C118.359 72.5521 118.306 72.6057 118.236 72.6057H116.684C116.54 72.6057 116.486 72.5361 116.524 72.3916L119.414 62.2747C119.467 62.1141 119.521 62.0605 119.682 62.0605H122.304C122.465 62.0605 122.572 62.1141 122.572 62.2747ZM119.574 68.6981H122.411C122.481 68.7356 122.518 68.6981 122.518 68.591L121.18 63.934C121.143 63.8645 121.111 63.827 121.073 63.827H120.913C120.875 63.827 120.859 63.8645 120.859 63.934L119.521 68.591C119.483 68.6981 119.505 68.7356 119.574 68.6981Z" fill="white"/>
<path id="&#38;lt;Path&#38;gt;_33" d="M127.55 72.6057H129.048C129.155 72.6057 129.209 72.4986 129.209 72.4451V65.3258C129.209 65.2723 129.263 65.2187 129.316 65.3258L131.832 69.3404C131.992 69.5545 132.153 69.5545 132.313 69.3404L134.829 65.3258C134.883 65.2187 134.936 65.2723 134.936 65.3258V72.4451C134.936 72.4986 134.99 72.6057 135.097 72.6057H136.595C136.702 72.6057 136.756 72.4986 136.756 72.4451V62.2211C136.756 62.1676 136.702 62.0605 136.595 62.0605H134.829C134.722 62.0605 134.652 62.098 134.615 62.1676L132.153 66.3428C132.099 66.4499 132.046 66.4499 131.992 66.3428L129.53 62.1676C129.493 62.098 129.423 62.0605 129.316 62.0605H127.55C127.443 62.0605 127.389 62.1676 127.389 62.2211V72.4451C127.389 72.4986 127.443 72.6057 127.55 72.6057Z" fill="white"/>
<path id="&#38;lt;Path&#38;gt;_34" d="M145.641 62.0605H138.79C138.683 62.0605 138.576 62.1676 138.576 62.2211V63.6129C138.576 63.7199 138.683 63.827 138.79 63.827H141.198C141.252 63.827 141.305 63.827 141.305 63.8805V72.3916C141.305 72.4986 141.359 72.6057 141.466 72.6057H142.965C143.072 72.6057 143.125 72.4986 143.125 72.3916V63.8805C143.125 63.843 143.163 63.827 143.232 63.827H145.641C145.748 63.827 145.855 63.7199 145.855 63.6129V62.2211C145.855 62.1676 145.748 62.0605 145.641 62.0605Z" fill="white"/>
</g>
</svg>
